<?xml version="1.0" standalone="no"?>
<!DOCTYPE svg PUBLIC "-//W3C//DTD SVG 20010904//EN"
 "http://www.w3.org/TR/2001/REC-SVG-20010904/DTD/svg10.dtd">
<svg version="1.0" xmlns="http://www.w3.org/2000/svg"
 width="200.000000pt" height="200.000000pt" viewBox="0 0 200.000000 200.000000"
 preserveAspectRatio="xMidYMid meet">

<g transform="translate(0.000000,200.000000) scale(0.100000,-0.100000)"
fill="#000000" stroke="none">
<path d="M310 1234 c0 -49 3 -64 14 -64 8 0 28 -11 43 -24 27 -23 28 -30 39
-158 10 -115 11 -123 13 -58 1 91 18 84 24 -10 l3 -65 4 75 3 75 7 -65 7 -65
1 63 c3 86 20 78 25 -10 l3 -73 2 73 c1 39 6 72 12 72 5 0 11 -33 13 -72 2
-42 4 -14 5 65 2 110 -1 144 -14 170 -35 68 -94 114 -166 127 l-38 7 0 -63z"/>
<path d="M87 1179 c-5 -63 -5 -129 -1 -145 23 -94 87 -158 182 -179 l32 -7 0
65 c0 63 -1 65 -30 77 -44 18 -60 57 -61 142 0 63 -2 70 -12 48 -10 -22 -12
-18 -17 45 l-6 70 -2 -67 c-1 -38 -6 -68 -12 -68 -6 0 -11 30 -12 68 l-2 67
-5 -65 c-5 -51 -10 -66 -23 -68 -14 -2 -18 8 -20 65 -3 61 -4 56 -11 -48z"/>
<path d="M592 1073 l3 -218 47 -3 47 -3 3 163 3 163 35 -160 35 -160 52 -3
c60 -3 50 -21 93 173 17 77 33 145 35 150 3 6 4 -64 2 -155 l-2 -165 50 0 50
0 3 218 2 217 -89 0 -89 0 -22 -122 c-12 -68 -24 -130 -27 -138 -3 -8 -17 47
-31 123 l-26 137 -88 0 -88 0 2 -217z"/>
<path d="M1102 1073 l3 -218 47 -3 48 -3 2 168 3 168 35 -165 35 -165 55 0 55
0 35 160 35 160 3 -163 3 -163 47 3 47 3 3 218 2 217 -88 0 -89 0 -25 -137
c-14 -76 -28 -131 -31 -123 -3 8 -15 70 -27 138 l-23 122 -89 0 -88 0 2 -217z"/>
<path d="M1620 1092 c0 -185 1 -200 20 -217 45 -41 191 -38 233 4 21 20 22 32
25 216 l4 195 -56 0 -56 0 0 -164 c0 -90 -3 -171 -6 -180 -8 -21 -50 -21 -58
0 -3 9 -6 90 -6 180 l0 164 -50 0 -50 0 0 -198z"/>
<path d="M272 1124 c-29 -20 -31 -79 -3 -94 46 -24 101 1 101 46 0 25 -10 38
-37 53 -28 14 -34 14 -61 -5z"/>
<path d="M407 802 c6 -4 13 -21 15 -37 3 -29 4 -29 9 8 4 32 2 37 -16 37 -12
0 -16 -3 -8 -8z"/>
<path d="M672 773 c2 -20 9 -38 16 -39 7 -1 8 0 2 3 -14 7 -12 60 3 66 7 3 4
6 -6 6 -15 1 -18 -6 -15 -36z"/>
<path d="M754 796 c-9 -23 0 -59 14 -64 11 -3 11 0 1 16 -14 22 -5 56 14 49 6
-2 12 -16 12 -30 -1 -14 3 -23 7 -21 12 8 10 38 -4 52 -16 16 -37 15 -44 -2z"/>
<path d="M1431 783 c1 -22 2 -23 6 -8 3 11 10 23 17 27 7 5 5 8 -6 8 -13 0
-18 -7 -17 -27z"/>
<path d="M1517 803 c-4 -3 -7 -20 -7 -37 0 -25 2 -28 11 -16 8 11 12 12 16 3
8 -22 18 -14 18 15 1 33 -21 53 -38 35z m24 -16 c-1 -12 -15 -9 -19 4 -3 6 1
10 8 8 6 -3 11 -8 11 -12z"/>
<path d="M1605 799 c-4 -5 0 -18 9 -28 21 -23 20 -35 -1 -26 -14 5 -15 4 -6
-6 10 -10 16 -9 28 1 15 13 14 15 -7 32 -20 15 -21 19 -8 28 9 6 10 10 3 10
-6 0 -15 -5 -18 -11z"/>
<path d="M1747 802 c6 -4 13 -21 16 -37 l4 -30 2 32 c0 17 7 34 14 36 6 3 -1
6 -18 6 -16 0 -25 -3 -18 -7z"/>
<path d="M111 768 c1 -19 3 -25 6 -15 5 18 5 18 18 1 12 -16 13 -16 20 7 l9
24 7 -25 c7 -23 7 -23 8 8 1 37 -14 43 -25 10 l-7 -23 -10 23 c-15 32 -27 27
-26 -10z"/>
<path d="M231 773 c0 -17 5 -33 12 -36 24 -8 37 5 36 37 l-1 31 -7 -30 c-3
-16 -11 -30 -16 -30 -5 0 -13 14 -16 30 l-7 30 -1 -32z"/>
<path d="M334 771 c0 -21 7 -36 16 -38 10 -3 11 -2 3 4 -6 4 -13 22 -16 38 -4
27 -5 27 -3 -4z"/>
<path d="M492 770 c0 -19 2 -27 5 -17 2 9 2 25 0 35 -3 9 -5 1 -5 -18z"/>
<path d="M551 768 c1 -31 1 -32 9 -8 5 16 8 19 9 8 1 -23 18 -31 25 -12 3 8 2
12 -3 9 -5 -3 -12 4 -16 15 -10 31 -25 24 -24 -12z"/>
<path d="M600 790 c0 -5 5 -10 10 -10 6 0 10 5 10 10 0 6 -4 10 -10 10 -5 0
-10 -4 -10 -10z"/>
<path d="M862 770 c0 -19 2 -27 5 -17 2 9 2 25 0 35 -3 9 -5 1 -5 -18z"/>
<path d="M941 783 c12 -15 12 -16 -3 -11 -11 5 -18 0 -21 -13 -6 -21 9 -27 16
-6 3 9 7 9 20 -2 15 -12 16 -10 6 18 -6 17 -16 31 -21 31 -6 0 -4 -8 3 -17z"/>
<path d="M1071 774 c-1 -21 5 -34 15 -38 13 -5 14 -3 6 6 -5 7 -12 24 -15 38
-4 22 -4 21 -6 -6z"/>
<path d="M1112 770 c0 -19 2 -27 5 -17 2 9 2 25 0 35 -3 9 -5 1 -5 -18z"/>
<path d="M1171 768 c1 -31 2 -31 8 -8 l7 25 12 -22 c18 -33 32 -28 31 10 -1
30 -2 30 -8 7 l-7 -25 -15 23 c-19 31 -29 28 -28 -10z"/>
<path d="M1282 770 c0 -19 2 -27 5 -17 2 9 2 25 0 35 -3 9 -5 1 -5 -18z"/>
<path d="M1331 798 c-1 -4 4 -19 10 -35 10 -27 11 -27 25 -9 8 11 14 27 13 35
0 9 -5 3 -11 -13 l-11 -29 -13 29 c-7 16 -13 26 -13 22z"/>
<path d="M1692 770 c0 -19 2 -27 5 -17 2 9 2 25 0 35 -3 9 -5 1 -5 -18z"/>
<path d="M1847 782 c1 -8 3 -21 3 -30 0 -11 6 -6 15 12 19 35 19 42 1 27 -8
-7 -16 -8 -18 -4 -3 4 -3 2 -1 -5z"/>
<path d="M611 754 c0 -11 3 -14 6 -6 3 7 2 16 -1 19 -3 4 -6 -2 -5 -13z"/>
<path d="M1437 739 c7 -7 15 -10 18 -7 3 3 -2 9 -12 12 -14 6 -15 5 -6 -5z"/>
</g>
</svg>
