<svg id="svg" version="1.1" xmlns="http://www.w3.org/2000/svg" xmlns:xlink="http://www.w3.org/1999/xlink" width="400" height="138.71733966745842" viewBox="0, 0, 400,138.71733966745842"><g id="svgg"><path id="path0" d="M13.111 14.611 C 13.050 14.672,13.000 20.447,13.000 27.444 C 13.000 35.815,12.943 40.167,12.833 40.167 C 12.742 40.167,12.667 40.279,12.667 40.417 C 12.667 40.554,12.554 40.667,12.417 40.667 C 12.037 40.667,12.037 65.081,12.417 65.227 C 12.610 65.301,12.667 65.624,12.667 66.652 C 12.667 67.382,12.742 68.027,12.833 68.083 C 12.925 68.140,13.000 68.559,13.000 69.015 C 13.000 69.598,13.074 69.872,13.250 69.940 C 13.420 70.005,13.500 70.271,13.500 70.768 C 13.500 71.308,13.566 71.500,13.750 71.500 C 13.925 71.500,14.000 71.677,14.000 72.089 C 14.000 72.458,14.093 72.713,14.250 72.773 C 14.413 72.836,14.500 73.095,14.500 73.523 C 14.500 73.951,14.587 74.210,14.750 74.273 C 14.890 74.327,15.000 74.575,15.000 74.839 C 15.000 75.098,15.112 75.422,15.250 75.560 C 15.387 75.697,15.500 75.967,15.500 76.160 C 15.500 76.353,15.612 76.554,15.750 76.606 C 15.893 76.661,16.000 76.910,16.000 77.184 C 16.000 77.450,16.075 77.667,16.167 77.667 C 16.258 77.667,16.333 77.854,16.333 78.083 C 16.333 78.343,16.428 78.500,16.583 78.500 C 16.740 78.500,16.833 78.658,16.833 78.922 C 16.833 79.154,16.946 79.387,17.083 79.440 C 17.226 79.494,17.333 79.743,17.333 80.018 C 17.333 80.310,17.414 80.484,17.538 80.458 C 17.650 80.435,17.766 80.573,17.796 80.763 C 17.825 80.954,18.071 81.352,18.341 81.648 C 18.612 81.945,18.833 82.305,18.833 82.450 C 18.833 82.594,19.021 82.886,19.250 83.098 C 19.479 83.310,19.667 83.592,19.667 83.724 C 19.667 83.856,19.779 84.008,19.917 84.060 C 20.054 84.113,20.167 84.254,20.167 84.374 C 20.167 84.617,20.746 85.167,21.002 85.167 C 21.093 85.167,21.167 85.396,21.167 85.677 C 21.167 85.995,21.233 86.145,21.345 86.076 C 21.443 86.016,21.564 86.124,21.614 86.317 C 21.664 86.509,21.809 86.667,21.936 86.667 C 22.063 86.667,22.167 86.748,22.167 86.846 C 22.167 87.081,23.586 88.500,23.820 88.500 C 23.919 88.500,24.000 88.612,24.000 88.750 C 24.000 88.888,24.113 89.000,24.250 89.000 C 24.387 89.000,24.500 89.112,24.500 89.250 C 24.500 89.388,24.613 89.500,24.750 89.500 C 24.887 89.500,25.000 89.612,25.000 89.750 C 25.000 89.888,25.113 90.000,25.250 90.000 C 25.387 90.000,25.500 90.095,25.500 90.210 C 25.500 90.326,25.730 90.607,26.012 90.835 C 26.913 91.565,27.333 91.980,27.333 92.139 C 27.333 92.225,27.465 92.339,27.625 92.392 C 28.072 92.543,28.528 92.871,28.989 93.375 C 29.219 93.627,29.508 93.833,29.630 93.833 C 29.753 93.833,29.806 93.909,29.749 94.002 C 29.691 94.096,29.872 94.216,30.156 94.273 C 30.437 94.329,30.667 94.441,30.667 94.521 C 30.667 94.601,30.779 94.667,30.917 94.667 C 31.054 94.667,31.167 94.779,31.167 94.917 C 31.167 95.072,31.324 95.167,31.583 95.167 C 31.843 95.167,32.000 95.261,32.000 95.417 C 32.000 95.554,32.115 95.667,32.255 95.667 C 32.396 95.667,32.554 95.779,32.606 95.917 C 32.659 96.054,32.882 96.167,33.101 96.167 C 33.345 96.167,33.500 96.264,33.500 96.417 C 33.500 96.583,33.667 96.667,34.000 96.667 C 34.333 96.667,34.500 96.750,34.500 96.917 C 34.500 97.054,34.606 97.167,34.736 97.167 C 34.866 97.167,34.997 97.223,35.028 97.292 C 35.114 97.485,36.306 98.000,36.667 98.000 C 36.862 98.000,36.957 98.085,36.907 98.216 C 36.850 98.365,37.018 98.444,37.451 98.474 C 37.797 98.497,38.140 98.625,38.214 98.758 C 38.289 98.891,38.534 99.000,38.758 99.000 C 39.010 99.000,39.167 99.096,39.167 99.250 C 39.167 99.434,39.359 99.500,39.899 99.500 C 40.396 99.500,40.662 99.580,40.727 99.750 C 40.780 99.888,41.013 100.000,41.245 100.000 C 41.477 100.000,41.667 100.072,41.667 100.159 C 41.667 100.247,41.948 100.363,42.292 100.418 C 42.635 100.473,43.047 100.589,43.206 100.676 C 43.365 100.762,43.788 100.833,44.147 100.833 C 44.572 100.833,44.831 100.920,44.894 101.083 C 44.962 101.260,45.238 101.333,45.840 101.333 C 46.374 101.333,46.784 101.426,46.940 101.583 C 47.117 101.760,47.548 101.833,48.411 101.833 C 49.342 101.833,49.654 101.893,49.727 102.083 C 49.808 102.294,50.338 102.333,53.079 102.333 L 56.335 102.333 56.293 88.875 L 56.250 75.417 54.670 75.368 C 53.496 75.332,53.054 75.257,52.953 75.077 C 52.860 74.911,52.534 74.833,51.926 74.833 C 51.288 74.833,51.008 74.762,50.940 74.583 C 50.877 74.420,50.617 74.333,50.190 74.333 C 49.762 74.333,49.502 74.247,49.440 74.083 C 49.380 73.926,49.125 73.833,48.755 73.833 C 48.343 73.833,48.167 73.758,48.167 73.583 C 48.167 73.431,48.011 73.333,47.768 73.333 C 47.548 73.333,47.326 73.221,47.273 73.083 C 47.220 72.946,47.062 72.833,46.922 72.833 C 46.782 72.833,46.667 72.758,46.667 72.667 C 46.667 72.575,46.479 72.500,46.250 72.500 C 45.991 72.500,45.833 72.406,45.833 72.250 C 45.833 72.112,45.721 72.000,45.583 72.000 C 45.446 72.000,45.333 71.887,45.333 71.750 C 45.333 71.612,45.221 71.500,45.083 71.500 C 44.946 71.500,44.833 71.388,44.833 71.250 C 44.833 71.113,44.777 71.019,44.707 71.042 C 44.531 71.100,43.000 69.589,43.000 69.357 C 43.000 69.252,42.887 69.167,42.750 69.167 C 42.612 69.167,42.500 69.054,42.500 68.917 C 42.500 68.779,42.387 68.667,42.250 68.667 C 42.112 68.667,42.000 68.526,42.000 68.354 C 42.000 68.182,41.888 67.947,41.750 67.833 C 41.612 67.719,41.500 67.523,41.500 67.396 C 41.500 67.270,41.425 67.167,41.333 67.167 C 41.242 67.167,41.167 67.014,41.167 66.828 C 41.167 66.642,41.054 66.446,40.917 66.394 C 40.774 66.339,40.667 66.090,40.667 65.816 C 40.667 65.498,40.581 65.333,40.417 65.333 C 40.198 65.333,40.056 64.587,40.208 64.238 C 40.231 64.186,40.119 64.070,39.958 63.980 C 39.757 63.868,39.667 63.612,39.667 63.158 C 39.667 62.684,39.597 62.500,39.417 62.500 C 39.225 62.500,39.167 62.286,39.167 61.578 C 39.167 60.912,39.097 60.630,38.917 60.560 C 38.699 60.477,38.667 59.314,38.667 51.496 C 38.667 42.802,38.633 41.898,38.316 42.094 C 38.234 42.145,38.167 41.844,38.167 41.427 C 38.167 41.009,38.092 40.667,38.000 40.667 C 37.908 40.667,37.833 40.554,37.833 40.417 C 37.833 40.279,37.721 40.167,37.583 40.167 C 37.375 40.167,37.332 39.826,37.327 38.125 C 37.323 36.670,37.253 35.964,37.083 35.667 C 36.884 35.318,36.844 33.555,36.839 24.875 L 36.833 14.500 35.167 14.500 L 33.500 14.500 33.500 18.250 C 33.500 21.472,33.535 22.000,33.750 22.000 C 33.969 22.000,34.000 23.093,34.000 30.833 C 34.000 38.574,33.969 39.667,33.750 39.667 C 33.612 39.667,33.500 39.779,33.500 39.917 C 33.500 40.054,33.387 40.167,33.250 40.167 C 33.112 40.167,33.000 40.279,33.000 40.417 C 33.000 40.554,32.887 40.667,32.750 40.667 C 32.612 40.667,32.500 40.554,32.500 40.417 C 32.500 40.279,32.387 40.167,32.250 40.167 C 32.112 40.167,32.000 40.054,32.000 39.917 C 32.000 39.779,31.925 39.667,31.833 39.667 C 31.724 39.667,31.667 35.361,31.667 27.083 L 31.667 14.500 30.000 14.500 L 28.333 14.500 28.333 21.167 C 28.333 25.500,28.392 27.833,28.500 27.833 C 28.608 27.833,28.667 29.917,28.667 33.750 C 28.667 37.583,28.608 39.667,28.500 39.667 C 28.408 39.667,28.333 39.742,28.333 39.833 C 28.333 39.925,28.183 40.150,28.000 40.333 C 27.604 40.729,27.333 40.763,27.333 40.417 C 27.333 40.279,27.221 40.167,27.083 40.167 C 26.863 40.167,26.833 38.740,26.833 28.328 C 26.833 17.959,26.802 16.478,26.583 16.394 C 26.404 16.325,26.333 16.044,26.333 15.399 L 26.333 14.500 24.917 14.500 L 23.500 14.500 23.500 27.020 L 23.500 39.539 23.042 40.061 L 22.583 40.583 22.125 40.160 L 21.667 39.737 21.667 27.113 L 21.667 14.488 20.042 14.536 L 18.417 14.583 18.374 27.375 C 18.337 38.592,18.301 40.167,18.082 40.167 C 17.945 40.167,17.833 40.279,17.833 40.417 C 17.833 40.814,17.556 40.711,16.922 40.078 L 16.333 39.489 16.333 26.994 L 16.333 14.500 14.778 14.500 C 13.922 14.500,13.172 14.550,13.111 14.611 M54.944 14.611 C 54.693 14.863,54.819 38.296,55.074 38.550 C 55.207 38.683,55.337 39.192,55.366 39.687 L 55.417 40.583 57.542 40.630 C 58.772 40.657,59.667 40.745,59.667 40.838 C 59.667 40.927,60.004 41.000,60.417 41.000 C 60.928 41.000,61.153 41.066,61.125 41.208 C 61.097 41.346,61.349 41.434,61.866 41.467 C 62.407 41.502,62.625 41.582,62.570 41.724 C 62.517 41.863,62.699 41.945,63.118 41.974 C 63.463 41.997,63.807 42.125,63.881 42.258 C 63.956 42.391,64.158 42.500,64.331 42.500 C 64.504 42.500,64.892 42.725,65.194 43.000 C 65.495 43.275,65.840 43.500,65.962 43.500 C 66.083 43.500,66.356 43.688,66.569 43.917 C 66.781 44.146,67.075 44.333,67.222 44.333 C 67.509 44.333,68.667 45.406,68.667 45.672 C 68.667 45.761,68.742 45.833,68.833 45.833 C 69.006 45.833,69.667 46.432,69.667 46.589 C 69.667 46.638,69.873 46.894,70.125 47.158 C 70.801 47.865,71.000 48.132,71.000 48.332 C 71.000 48.430,71.112 48.554,71.250 48.606 C 71.387 48.659,71.500 48.874,71.500 49.083 C 71.500 49.293,71.612 49.508,71.750 49.560 C 71.887 49.613,72.000 49.811,72.000 50.000 C 72.000 50.189,72.112 50.387,72.250 50.440 C 72.387 50.492,72.500 50.717,72.500 50.940 C 72.500 51.162,72.612 51.387,72.750 51.440 C 72.903 51.498,73.000 51.751,73.000 52.091 C 73.000 52.397,73.075 52.693,73.167 52.750 C 73.258 52.807,73.333 53.169,73.333 53.556 C 73.333 53.943,73.445 54.418,73.581 54.612 C 73.792 54.914,73.829 56.279,73.836 63.899 C 73.843 71.637,73.877 72.833,74.089 72.833 C 74.239 72.833,74.333 72.996,74.333 73.255 C 74.333 73.487,74.446 73.720,74.583 73.773 C 74.721 73.826,74.833 73.973,74.833 74.101 C 74.833 74.229,74.946 74.333,75.083 74.333 C 75.303 74.333,75.333 75.649,75.333 85.172 C 75.333 94.652,75.365 96.022,75.583 96.106 C 75.792 96.186,75.833 96.669,75.833 99.018 L 75.833 101.833 77.250 101.833 L 78.667 101.833 78.667 88.345 L 78.667 74.858 79.083 74.530 C 79.313 74.350,79.500 74.119,79.500 74.018 C 79.500 73.916,79.612 73.833,79.750 73.833 C 79.887 73.833,80.000 73.946,80.000 74.083 C 80.000 74.221,80.112 74.333,80.250 74.333 C 80.462 74.333,80.500 74.751,80.500 77.089 C 80.500 79.384,80.542 79.860,80.750 79.940 C 80.969 80.024,81.000 81.401,81.000 90.941 L 81.000 101.845 82.625 101.798 L 84.250 101.750 84.293 94.287 C 84.331 87.758,84.305 86.812,84.085 86.728 C 83.867 86.644,83.834 85.848,83.839 80.774 C 83.844 74.702,83.862 74.542,84.542 74.287 C 84.702 74.226,84.833 74.100,84.833 74.005 C 84.833 73.911,84.946 73.833,85.083 73.833 C 85.221 73.833,85.333 73.946,85.333 74.083 C 85.333 74.221,85.446 74.333,85.583 74.333 C 85.804 74.333,85.833 75.972,85.833 88.083 L 85.833 101.833 87.417 101.833 L 89.000 101.833 89.000 88.401 C 89.000 75.222,89.006 74.961,89.333 74.545 C 89.517 74.312,89.669 74.188,89.672 74.269 C 89.675 74.350,89.753 74.285,89.847 74.125 C 90.055 73.768,90.500 73.740,90.500 74.083 C 90.500 74.221,90.612 74.333,90.749 74.333 C 90.968 74.333,91.003 76.010,91.041 88.042 L 91.083 101.750 92.708 101.798 L 94.333 101.845 94.333 88.089 C 94.333 75.973,94.363 74.333,94.583 74.333 C 94.721 74.333,94.833 74.221,94.833 74.083 C 94.833 73.946,94.903 73.833,94.988 73.833 C 95.073 73.833,95.177 73.702,95.218 73.542 C 95.260 73.381,95.303 73.491,95.314 73.786 C 95.327 74.140,95.404 74.297,95.542 74.247 C 96.162 74.019,96.163 74.038,96.169 88.134 L 96.174 101.833 97.837 101.833 L 99.500 101.833 99.500 88.083 C 99.500 75.972,99.530 74.333,99.750 74.333 C 99.888 74.333,100.000 74.229,100.000 74.101 C 100.000 73.973,100.112 73.826,100.250 73.773 C 100.388 73.720,100.500 73.487,100.500 73.255 C 100.500 72.991,100.594 72.833,100.750 72.833 C 100.969 72.833,101.000 71.687,101.000 63.512 C 101.000 55.448,100.966 54.157,100.750 53.940 C 100.561 53.751,100.500 53.281,100.500 52.007 C 100.500 50.664,100.449 50.303,100.250 50.227 C 100.064 50.156,100.000 49.860,100.000 49.077 C 100.000 48.363,99.919 47.943,99.750 47.774 C 99.611 47.635,99.500 47.228,99.500 46.857 C 99.500 46.487,99.389 46.079,99.250 45.940 C 99.112 45.803,99.000 45.420,99.000 45.090 C 99.000 44.710,98.908 44.454,98.750 44.394 C 98.587 44.331,98.500 44.072,98.500 43.649 C 98.500 43.292,98.435 43.000,98.355 43.000 C 98.275 43.000,98.161 42.700,98.103 42.333 C 98.044 41.967,97.922 41.667,97.831 41.667 C 97.741 41.667,97.667 41.522,97.667 41.345 C 97.667 41.168,97.554 40.911,97.417 40.774 C 97.279 40.636,97.167 40.366,97.167 40.173 C 97.167 39.981,97.054 39.780,96.917 39.727 C 96.779 39.674,96.667 39.449,96.667 39.227 C 96.667 39.005,96.554 38.780,96.417 38.727 C 96.279 38.674,96.167 38.452,96.167 38.232 C 96.167 37.989,96.069 37.833,95.917 37.833 C 95.750 37.833,95.667 37.667,95.667 37.333 C 95.667 37.000,95.583 36.833,95.417 36.833 C 95.275 36.833,95.167 36.684,95.167 36.488 C 95.167 36.298,95.073 36.038,94.958 35.911 C 94.442 35.334,94.333 35.165,94.333 34.932 C 94.333 34.795,94.223 34.621,94.088 34.546 C 93.953 34.470,93.818 34.245,93.787 34.045 C 93.757 33.845,93.530 33.495,93.283 33.266 C 93.035 33.037,92.833 32.771,92.833 32.675 C 92.833 32.579,92.721 32.500,92.583 32.500 C 92.443 32.500,92.333 32.351,92.333 32.159 C 92.333 31.971,92.146 31.644,91.917 31.431 C 91.688 31.219,91.500 30.960,91.500 30.856 C 91.500 30.752,91.388 30.667,91.250 30.667 C 91.096 30.667,91.000 30.511,91.000 30.261 C 91.000 30.002,90.880 29.818,90.667 29.750 C 90.483 29.692,90.333 29.588,90.333 29.519 C 90.333 29.306,89.398 28.333,89.193 28.333 C 89.087 28.333,89.000 28.259,89.000 28.167 C 89.000 27.825,85.430 24.500,85.062 24.500 C 84.936 24.500,84.833 24.387,84.833 24.250 C 84.833 24.113,84.729 24.000,84.601 24.000 C 84.473 24.000,84.326 23.887,84.273 23.750 C 84.220 23.613,84.062 23.500,83.922 23.500 C 83.782 23.500,83.685 23.406,83.708 23.292 C 83.732 23.174,83.549 23.060,83.292 23.031 C 83.040 23.002,82.833 22.887,82.833 22.775 C 82.833 22.663,82.608 22.439,82.333 22.277 C 82.058 22.114,81.833 21.910,81.833 21.824 C 81.833 21.737,81.646 21.667,81.417 21.667 C 81.157 21.667,81.000 21.572,81.000 21.417 C 81.000 21.250,80.833 21.167,80.500 21.167 C 80.167 21.167,80.000 21.083,80.000 20.917 C 80.000 20.779,79.896 20.667,79.768 20.667 C 79.640 20.667,79.492 20.554,79.440 20.417 C 79.387 20.279,79.199 20.167,79.023 20.167 C 78.847 20.167,78.659 20.054,78.606 19.917 C 78.554 19.779,78.329 19.667,78.106 19.667 C 77.884 19.667,77.659 19.554,77.606 19.417 C 77.554 19.279,77.321 19.167,77.089 19.167 C 76.857 19.167,76.667 19.092,76.667 19.000 C 76.667 18.908,76.477 18.833,76.245 18.833 C 76.013 18.833,75.780 18.721,75.727 18.583 C 75.674 18.446,75.460 18.333,75.250 18.333 C 75.040 18.333,74.826 18.221,74.773 18.083 C 74.720 17.946,74.496 17.833,74.276 17.833 C 74.055 17.833,73.781 17.721,73.667 17.583 C 73.553 17.446,73.251 17.333,72.997 17.333 C 72.741 17.333,72.493 17.222,72.440 17.083 C 72.377 16.920,72.117 16.833,71.690 16.833 C 71.262 16.833,71.002 16.747,70.940 16.583 C 70.877 16.420,70.617 16.333,70.186 16.333 C 69.824 16.333,69.500 16.249,69.465 16.146 C 69.431 16.042,69.012 15.920,68.535 15.874 C 68.057 15.828,67.667 15.725,67.667 15.645 C 67.667 15.565,67.252 15.500,66.745 15.500 C 66.079 15.500,65.796 15.431,65.727 15.250 C 65.653 15.057,65.333 15.000,64.336 15.000 C 63.388 15.000,62.985 14.933,62.833 14.750 C 62.616 14.488,55.198 14.357,54.944 14.611 M111.000 58.667 L 111.000 101.833 121.167 101.833 L 131.333 101.833 131.333 85.500 C 131.333 71.093,131.304 69.167,131.083 69.167 C 130.863 69.167,130.833 67.491,130.833 55.083 C 130.833 42.676,130.863 41.000,131.083 41.000 C 131.275 41.000,131.333 41.214,131.333 41.922 C 131.333 42.588,131.403 42.870,131.583 42.940 C 131.770 43.011,131.833 43.308,131.833 44.106 C 131.833 44.904,131.897 45.202,132.083 45.273 C 132.272 45.345,132.333 45.650,132.333 46.518 C 132.333 47.428,132.385 47.667,132.583 47.667 C 132.775 47.667,132.833 47.880,132.833 48.589 C 132.833 49.254,132.903 49.537,133.083 49.606 C 133.272 49.679,133.333 49.984,133.333 50.851 C 133.333 51.506,133.405 52.000,133.500 52.000 C 133.592 52.000,133.667 52.413,133.667 52.917 C 133.667 53.620,133.725 53.833,133.917 53.833 C 134.143 53.833,134.295 55.065,134.179 55.958 C 134.164 56.073,134.268 56.167,134.409 56.167 C 134.615 56.167,134.667 56.385,134.667 57.255 C 134.667 58.069,134.730 58.368,134.917 58.440 C 135.100 58.510,135.167 58.799,135.167 59.518 C 135.167 60.280,135.223 60.500,135.417 60.500 C 135.611 60.500,135.667 60.721,135.667 61.488 C 135.667 62.144,135.751 62.560,135.917 62.726 C 136.072 62.882,136.167 63.291,136.167 63.812 C 136.167 64.271,136.232 64.687,136.311 64.736 C 136.391 64.786,136.508 65.353,136.572 65.996 C 136.635 66.640,136.757 67.167,136.843 67.167 C 136.930 67.167,137.000 67.579,137.000 68.083 C 137.000 68.787,137.058 69.000,137.250 69.000 C 137.446 69.000,137.500 69.230,137.500 70.071 C 137.500 70.802,137.580 71.222,137.750 71.393 C 137.911 71.554,138.000 71.966,138.000 72.551 C 138.000 73.155,138.084 73.529,138.250 73.667 C 138.416 73.804,138.500 74.177,138.500 74.770 C 138.500 75.456,138.559 75.667,138.750 75.667 C 138.948 75.667,139.000 75.905,139.000 76.816 C 139.000 77.683,139.061 77.988,139.250 78.060 C 139.431 78.130,139.500 78.412,139.500 79.078 C 139.500 79.585,139.566 80.000,139.647 80.000 C 139.728 80.000,139.826 80.501,139.865 81.114 C 139.907 81.771,140.018 82.256,140.135 82.295 C 140.252 82.334,140.333 82.692,140.333 83.169 C 140.333 83.664,140.430 84.073,140.583 84.226 C 140.751 84.394,140.833 84.811,140.833 85.493 C 140.833 86.244,140.899 86.536,141.083 86.606 C 141.266 86.676,141.333 86.963,141.333 87.664 C 141.333 88.302,141.415 88.694,141.575 88.827 C 141.721 88.948,141.837 89.402,141.867 89.972 C 141.901 90.619,141.982 90.904,142.125 90.875 C 142.276 90.845,142.333 91.157,142.333 92.005 C 142.333 92.893,142.394 93.200,142.583 93.273 C 142.763 93.342,142.833 93.623,142.833 94.268 C 142.833 94.762,142.908 95.167,143.000 95.167 C 143.094 95.167,143.167 95.636,143.167 96.242 C 143.167 96.999,143.237 97.356,143.404 97.450 C 143.562 97.538,143.660 97.944,143.695 98.646 C 143.727 99.303,143.827 99.739,143.957 99.789 C 144.072 99.833,144.168 100.142,144.169 100.476 C 144.170 100.810,144.216 101.252,144.272 101.458 L 144.372 101.833 155.236 101.833 C 167.421 101.833,166.500 101.945,166.500 100.467 C 166.500 99.719,166.557 99.500,166.750 99.500 C 166.943 99.500,167.001 99.280,167.005 98.542 C 167.008 97.965,167.108 97.455,167.255 97.260 C 167.398 97.072,167.500 96.574,167.500 96.069 C 167.500 95.509,167.577 95.173,167.718 95.119 C 167.846 95.069,167.953 94.708,167.977 94.240 C 168.000 93.802,168.089 93.312,168.176 93.150 C 168.262 92.988,168.333 92.400,168.333 91.844 C 168.333 91.057,168.389 90.833,168.583 90.833 C 168.782 90.833,168.833 90.593,168.833 89.667 C 168.833 88.741,168.885 88.500,169.083 88.500 C 169.275 88.500,169.333 88.289,169.333 87.601 C 169.333 86.956,169.404 86.675,169.583 86.606 C 169.770 86.535,169.833 86.238,169.833 85.442 C 169.833 84.696,169.909 84.312,170.083 84.167 C 170.241 84.035,170.333 83.668,170.333 83.167 C 170.333 82.666,170.425 82.298,170.583 82.167 C 170.753 82.026,170.833 81.649,170.833 81.000 C 170.833 80.351,170.914 79.974,171.083 79.833 C 171.254 79.692,171.333 79.314,171.333 78.646 C 171.333 78.104,171.408 77.667,171.500 77.667 C 171.593 77.667,171.667 77.222,171.667 76.667 C 171.667 75.889,171.722 75.667,171.917 75.667 C 172.115 75.667,172.167 75.426,172.167 74.500 C 172.167 73.574,172.218 73.333,172.417 73.333 C 172.606 73.333,172.668 73.123,172.672 72.458 C 172.675 71.955,172.781 71.446,172.922 71.260 C 173.066 71.069,173.167 70.571,173.167 70.046 C 173.167 69.409,173.238 69.129,173.417 69.060 C 173.603 68.989,173.667 68.691,173.667 67.887 C 173.667 67.151,173.746 66.730,173.917 66.560 C 174.061 66.415,174.167 66.008,174.167 65.592 C 174.167 65.157,174.265 64.792,174.417 64.667 C 174.587 64.525,174.667 64.147,174.667 63.480 C 174.667 62.938,174.741 62.500,174.833 62.500 C 174.926 62.500,175.000 62.054,175.000 61.495 C 175.000 60.755,175.066 60.464,175.250 60.394 C 175.436 60.322,175.500 60.026,175.500 59.232 C 175.500 58.396,175.554 58.167,175.750 58.167 C 175.948 58.167,176.000 57.928,176.000 57.018 C 176.000 56.150,176.061 55.845,176.250 55.773 C 176.427 55.705,176.500 55.429,176.500 54.827 C 176.500 54.293,176.593 53.883,176.750 53.726 C 176.915 53.561,177.000 53.146,177.000 52.506 C 177.000 51.857,177.073 51.508,177.219 51.451 C 177.355 51.399,177.454 51.028,177.479 50.475 C 177.501 49.985,177.590 49.512,177.676 49.425 C 177.763 49.338,177.833 48.829,177.833 48.295 C 177.833 47.585,177.901 47.297,178.083 47.227 C 178.272 47.155,178.333 46.850,178.333 45.982 C 178.333 45.072,178.385 44.833,178.583 44.833 C 178.773 44.833,178.833 44.628,178.833 43.988 C 178.833 43.459,178.927 43.049,179.083 42.893 C 179.254 42.722,179.333 42.302,179.333 41.571 C 179.333 40.730,179.387 40.500,179.583 40.500 C 179.803 40.500,179.833 41.936,179.833 52.422 C 179.833 62.865,179.802 64.356,179.583 64.440 C 179.363 64.524,179.333 66.762,179.333 83.186 L 179.333 101.836 189.542 101.793 L 199.750 101.750 199.793 58.625 L 199.835 15.500 182.602 15.500 C 167.042 15.500,165.359 15.526,165.268 15.764 C 165.212 15.909,165.167 16.546,165.167 17.180 C 165.167 18.094,165.115 18.333,164.917 18.333 C 164.718 18.333,164.667 18.574,164.667 19.500 C 164.667 20.426,164.615 20.667,164.417 20.667 C 164.218 20.667,164.167 20.908,164.167 21.839 C 164.167 22.727,164.106 23.034,163.917 23.106 C 163.728 23.179,163.667 23.484,163.667 24.351 C 163.667 25.208,163.609 25.500,163.440 25.500 C 163.270 25.500,163.205 25.843,163.180 26.874 C 163.156 27.871,163.081 28.284,162.907 28.382 C 162.737 28.477,162.667 28.826,162.667 29.574 C 162.667 30.360,162.603 30.656,162.417 30.727 C 162.227 30.800,162.167 31.107,162.167 31.995 C 162.167 32.665,162.095 33.167,162.000 33.167 C 161.907 33.167,161.831 33.629,161.828 34.208 C 161.825 34.859,161.731 35.371,161.578 35.574 C 161.419 35.783,161.333 36.290,161.333 37.014 C 161.333 37.853,161.271 38.155,161.083 38.227 C 160.896 38.299,160.833 38.599,160.833 39.423 C 160.833 40.179,160.755 40.602,160.583 40.774 C 160.417 40.940,160.333 41.356,160.333 42.017 C 160.333 42.746,160.267 43.036,160.083 43.106 C 159.890 43.180,159.833 43.502,159.833 44.518 C 159.833 45.576,159.784 45.833,159.583 45.833 C 159.385 45.833,159.333 46.073,159.333 46.986 C 159.333 47.746,159.264 48.162,159.130 48.207 C 159.001 48.250,158.902 48.745,158.862 49.554 C 158.826 50.258,158.730 50.833,158.648 50.833 C 158.567 50.833,158.500 51.433,158.500 52.167 C 158.500 53.241,158.451 53.500,158.250 53.500 C 158.052 53.500,158.000 53.739,158.000 54.649 C 158.000 55.516,157.939 55.821,157.750 55.894 C 157.557 55.968,157.500 56.290,157.500 57.310 C 157.500 58.331,157.443 58.653,157.250 58.727 C 157.061 58.800,157.000 59.107,157.000 59.995 C 157.000 60.843,156.943 61.155,156.792 61.125 C 156.643 61.095,156.560 61.498,156.500 62.543 C 156.454 63.354,156.342 64.002,156.250 64.000 C 156.158 63.998,156.061 64.504,156.033 65.123 C 156.006 65.743,155.912 66.321,155.825 66.408 C 155.738 66.495,155.667 67.035,155.667 67.607 C 155.667 69.527,155.234 69.187,155.117 67.174 C 155.075 66.458,154.964 65.905,154.855 65.868 C 154.741 65.830,154.667 65.387,154.667 64.748 C 154.667 64.030,154.586 63.610,154.417 63.440 C 154.238 63.262,154.167 62.827,154.167 61.923 C 154.167 60.951,154.109 60.634,153.917 60.560 C 153.730 60.489,153.667 60.192,153.667 59.394 C 153.667 58.596,153.603 58.298,153.417 58.227 C 153.222 58.152,153.167 57.822,153.167 56.732 C 153.167 55.600,153.119 55.333,152.917 55.333 C 152.719 55.333,152.667 55.094,152.667 54.181 C 152.667 53.547,152.601 53.003,152.520 52.972 C 152.440 52.942,152.339 52.320,152.295 51.592 C 152.248 50.808,152.138 50.240,152.025 50.203 C 151.910 50.165,151.833 49.755,151.833 49.185 C 151.833 48.604,151.738 48.104,151.589 47.907 C 151.437 47.706,151.342 47.194,151.339 46.559 C 151.335 45.807,151.267 45.510,151.083 45.440 C 150.894 45.367,150.833 45.060,150.833 44.172 C 150.833 43.241,150.782 43.000,150.583 43.000 C 150.384 43.000,150.333 42.752,150.333 41.770 C 150.333 40.881,150.264 40.483,150.083 40.333 C 149.905 40.186,149.833 39.795,149.833 38.980 C 149.833 38.072,149.781 37.833,149.583 37.833 C 149.385 37.833,149.333 37.594,149.333 36.677 C 149.333 36.040,149.258 35.473,149.167 35.417 C 149.075 35.360,149.000 34.828,149.000 34.235 C 149.000 33.430,148.937 33.132,148.750 33.060 C 148.560 32.988,148.500 32.680,148.500 31.787 C 148.500 30.996,148.421 30.522,148.260 30.345 C 148.117 30.186,148.005 29.664,147.983 29.047 C 147.959 28.367,147.870 27.986,147.723 27.929 C 147.568 27.870,147.500 27.509,147.500 26.750 C 147.500 25.931,147.437 25.632,147.250 25.560 C 147.059 25.487,147.000 25.174,147.000 24.232 C 147.000 23.248,146.950 23.000,146.750 23.000 C 146.552 23.000,146.500 22.759,146.500 21.833 C 146.500 20.907,146.448 20.667,146.250 20.667 C 146.052 20.667,146.000 20.426,146.000 19.500 C 146.000 18.833,145.929 18.333,145.833 18.333 C 145.741 18.333,145.667 17.893,145.667 17.345 C 145.667 16.689,145.583 16.273,145.417 16.107 C 145.279 15.970,145.167 15.777,145.167 15.679 C 145.167 15.553,140.120 15.500,128.083 15.500 L 111.000 15.500 111.000 58.667 M210.208 58.625 L 210.250 101.750 220.417 101.750 L 230.583 101.750 230.626 90.208 C 230.664 80.018,230.640 78.667,230.418 78.667 C 230.196 78.667,230.167 76.509,230.167 59.905 C 230.167 43.228,230.194 41.171,230.417 41.393 C 230.584 41.560,230.667 41.978,230.667 42.660 C 230.667 43.410,230.732 43.702,230.917 43.773 C 231.096 43.842,231.167 44.122,231.167 44.760 C 231.167 45.350,231.246 45.695,231.401 45.783 C 231.543 45.864,231.674 46.326,231.734 46.958 C 232.017 49.925,232.030 50.000,232.265 50.000 C 232.436 50.000,232.506 50.248,232.521 50.917 C 232.532 51.421,232.560 51.908,232.583 52.000 C 232.606 52.092,232.634 52.246,232.646 52.343 C 232.657 52.440,232.742 52.473,232.833 52.417 C 232.937 52.352,233.000 52.693,233.000 53.323 C 233.000 54.110,233.055 54.333,233.250 54.333 C 233.448 54.333,233.500 54.574,233.500 55.500 C 233.500 56.426,233.552 56.667,233.750 56.667 C 233.946 56.667,234.000 56.896,234.000 57.730 C 234.000 58.471,234.076 58.855,234.250 59.000 C 234.410 59.133,234.500 59.502,234.500 60.026 C 234.500 60.599,234.575 60.872,234.750 60.940 C 234.936 61.011,235.000 61.307,235.000 62.091 C 235.000 62.672,235.075 63.193,235.167 63.250 C 235.258 63.307,235.333 63.753,235.333 64.242 C 235.333 64.878,235.404 65.158,235.583 65.227 C 235.767 65.297,235.833 65.587,235.833 66.316 C 235.833 66.977,235.917 67.393,236.083 67.560 C 236.233 67.709,236.333 68.117,236.333 68.577 C 236.333 69.105,236.411 69.374,236.583 69.440 C 236.772 69.512,236.833 69.815,236.833 70.667 C 236.833 71.518,236.895 71.821,237.083 71.894 C 237.263 71.963,237.333 72.244,237.333 72.898 C 237.333 73.904,237.458 74.379,237.684 74.239 C 237.766 74.188,237.833 74.601,237.833 75.157 C 237.833 75.712,237.898 76.167,237.977 76.167 C 238.056 76.167,238.161 76.670,238.211 77.286 C 238.260 77.902,238.383 78.433,238.484 78.467 C 238.584 78.500,238.667 78.891,238.667 79.335 C 238.667 79.822,238.764 80.240,238.911 80.387 C 239.068 80.544,239.165 81.022,239.185 81.732 C 239.207 82.533,239.277 82.833,239.441 82.833 C 239.604 82.833,239.667 83.091,239.667 83.755 C 239.667 84.421,239.736 84.704,239.917 84.773 C 240.103 84.845,240.167 85.142,240.167 85.940 C 240.167 86.738,240.230 87.035,240.417 87.106 C 240.602 87.178,240.667 87.472,240.667 88.250 C 240.667 89.028,240.731 89.322,240.917 89.394 C 241.097 89.463,241.167 89.746,241.167 90.411 C 241.167 90.918,241.233 91.333,241.314 91.333 C 241.395 91.333,241.493 91.835,241.532 92.448 C 241.574 93.104,241.685 93.589,241.802 93.628 C 241.923 93.669,242.000 94.048,242.000 94.602 C 242.000 95.256,242.070 95.537,242.250 95.606 C 242.436 95.678,242.500 95.975,242.500 96.773 C 242.500 97.571,242.564 97.868,242.750 97.940 C 242.929 98.008,243.000 98.288,243.000 98.926 C 243.000 99.527,243.078 99.860,243.239 99.951 C 243.384 100.032,243.499 100.413,243.531 100.917 L 243.583 101.750 254.327 101.793 L 265.071 101.836 265.452 101.392 C 265.748 101.048,265.833 100.746,265.833 100.046 C 265.833 99.465,265.923 99.054,266.083 98.893 C 266.237 98.739,266.333 98.330,266.333 97.831 C 266.333 97.385,266.408 96.973,266.500 96.917 C 266.592 96.860,266.667 96.331,266.667 95.740 C 266.667 94.897,266.720 94.667,266.917 94.667 C 267.115 94.667,267.167 94.426,267.167 93.500 C 267.167 92.574,267.218 92.333,267.417 92.333 C 267.608 92.333,267.667 92.123,267.667 91.437 C 267.667 90.844,267.751 90.471,267.917 90.333 C 268.086 90.193,268.167 89.816,268.167 89.164 C 268.167 88.463,268.234 88.176,268.417 88.106 C 268.594 88.038,268.667 87.762,268.667 87.160 C 268.667 86.626,268.760 86.216,268.917 86.060 C 269.078 85.898,269.167 85.485,269.167 84.893 C 269.167 84.300,269.255 83.888,269.417 83.726 C 269.582 83.561,269.667 83.145,269.667 82.498 C 269.667 81.960,269.742 81.473,269.833 81.417 C 269.925 81.360,270.000 80.906,270.000 80.407 C 270.000 79.712,270.058 79.500,270.250 79.500 C 270.448 79.500,270.500 79.261,270.500 78.351 C 270.500 77.484,270.561 77.179,270.750 77.106 C 270.927 77.038,271.000 76.762,271.000 76.160 C 271.000 75.626,271.093 75.216,271.250 75.060 C 271.416 74.894,271.500 74.478,271.500 73.821 C 271.500 73.054,271.556 72.833,271.750 72.833 C 271.948 72.833,272.000 72.593,272.000 71.667 C 272.000 70.741,272.052 70.500,272.250 70.500 C 272.444 70.500,272.500 70.280,272.500 69.518 C 272.500 68.799,272.567 68.510,272.750 68.440 C 272.937 68.368,273.000 68.069,273.000 67.255 C 273.000 66.641,273.073 66.167,273.167 66.167 C 273.258 66.167,273.333 65.763,273.333 65.270 C 273.333 64.677,273.418 64.304,273.583 64.167 C 273.753 64.026,273.833 63.649,273.833 62.997 C 273.833 62.296,273.901 62.010,274.083 61.940 C 274.260 61.872,274.333 61.596,274.333 60.993 C 274.333 60.460,274.426 60.050,274.583 59.893 C 274.745 59.731,274.833 59.319,274.833 58.726 C 274.833 58.134,274.922 57.721,275.083 57.560 C 275.245 57.398,275.333 56.985,275.333 56.393 C 275.333 55.800,275.422 55.388,275.583 55.226 C 275.737 55.072,275.833 54.664,275.833 54.165 C 275.833 53.718,275.908 53.307,276.000 53.250 C 276.092 53.193,276.167 52.664,276.167 52.073 C 276.167 51.230,276.220 51.000,276.417 51.000 C 276.611 51.000,276.667 50.777,276.667 49.990 C 276.667 49.435,276.734 49.022,276.816 49.073 C 277.042 49.213,277.167 48.738,277.167 47.731 C 277.167 47.078,277.237 46.796,277.417 46.727 C 277.605 46.655,277.667 46.350,277.667 45.482 C 277.667 44.572,277.719 44.333,277.917 44.333 C 278.111 44.333,278.167 44.113,278.167 43.351 C 278.167 42.632,278.234 42.343,278.417 42.273 C 278.600 42.203,278.667 41.914,278.667 41.192 C 278.667 40.520,278.746 40.142,278.917 40.000 C 279.138 39.816,279.167 40.758,279.167 48.313 C 279.167 55.776,279.136 56.833,278.917 56.833 C 278.696 56.833,278.667 59.445,278.667 79.335 L 278.667 101.836 288.792 101.793 L 298.917 101.750 298.959 58.625 L 299.001 15.500 281.696 15.500 L 264.390 15.500 264.352 16.456 C 264.330 17.004,264.211 17.526,264.073 17.678 C 263.915 17.853,263.833 18.321,263.833 19.055 C 263.833 19.685,263.761 20.167,263.667 20.167 C 263.572 20.167,263.500 20.661,263.500 21.316 C 263.500 22.183,263.439 22.488,263.250 22.560 C 263.061 22.633,263.000 22.940,263.000 23.828 C 263.000 24.759,262.949 25.000,262.750 25.000 C 262.552 25.000,262.500 25.238,262.500 26.146 C 262.500 26.962,262.428 27.352,262.250 27.500 C 262.072 27.648,262.000 28.039,262.000 28.866 C 262.000 29.673,261.924 30.100,261.750 30.274 C 261.580 30.444,261.500 30.865,261.500 31.595 C 261.500 32.363,261.441 32.655,261.292 32.625 C 261.145 32.596,261.069 32.923,261.033 33.734 C 261.005 34.392,260.880 35.031,260.742 35.229 C 260.588 35.448,260.500 35.986,260.500 36.704 C 260.500 37.346,260.428 37.833,260.333 37.833 C 260.238 37.833,260.167 38.327,260.167 38.982 C 260.167 39.850,260.105 40.155,259.917 40.227 C 259.730 40.298,259.667 40.595,259.667 41.391 C 259.667 42.137,259.591 42.522,259.417 42.667 C 259.236 42.816,259.167 43.212,259.167 44.086 C 259.167 45.009,259.107 45.321,258.917 45.394 C 258.730 45.465,258.667 45.765,258.667 46.583 C 258.667 47.345,258.599 47.703,258.443 47.763 C 258.291 47.821,258.207 48.211,258.183 48.963 C 258.163 49.575,258.065 50.127,257.964 50.189 C 257.864 50.251,257.746 50.890,257.703 51.609 C 257.660 52.328,257.551 52.963,257.461 53.021 C 257.372 53.078,257.258 53.624,257.209 54.233 C 257.160 54.843,257.056 55.382,256.977 55.431 C 256.898 55.480,256.833 56.115,256.833 56.843 C 256.833 57.909,256.785 58.167,256.583 58.167 C 256.385 58.167,256.333 58.408,256.333 59.339 C 256.333 60.227,256.273 60.534,256.083 60.606 C 255.892 60.680,255.833 60.994,255.833 61.946 C 255.833 62.830,255.761 63.263,255.583 63.440 C 255.409 63.615,255.333 64.041,255.333 64.845 C 255.333 65.674,255.275 65.988,255.127 65.958 C 254.982 65.929,254.906 66.284,254.870 67.167 C 254.784 69.274,254.333 69.636,254.333 67.597 C 254.333 66.917,254.262 66.336,254.176 66.306 C 254.089 66.275,254.003 65.747,253.983 65.133 C 253.959 64.378,253.875 63.988,253.724 63.930 C 253.564 63.868,253.500 63.488,253.500 62.600 C 253.500 61.739,253.426 61.283,253.259 61.117 C 253.103 60.960,253.007 60.461,252.984 59.687 C 252.962 58.931,252.868 58.431,252.725 58.312 C 252.576 58.189,252.500 57.738,252.500 56.980 C 252.500 56.072,252.448 55.833,252.250 55.833 C 252.052 55.833,252.000 55.593,252.000 54.667 C 252.000 53.741,251.948 53.500,251.750 53.500 C 251.549 53.500,251.500 53.243,251.500 52.184 C 251.500 51.169,251.443 50.847,251.250 50.773 C 251.061 50.700,251.000 50.394,251.000 49.515 C 251.000 48.876,250.925 48.307,250.833 48.250 C 250.742 48.193,250.667 47.662,250.667 47.068 C 250.667 46.263,250.603 45.965,250.417 45.894 C 250.226 45.821,250.167 45.509,250.167 44.586 C 250.167 43.712,250.097 43.316,249.917 43.167 C 249.742 43.022,249.667 42.637,249.667 41.891 C 249.667 41.095,249.603 40.798,249.417 40.727 C 249.228 40.654,249.167 40.349,249.167 39.477 C 249.167 38.605,249.106 38.299,248.917 38.227 C 248.730 38.155,248.667 37.858,248.667 37.060 C 248.667 36.262,248.603 35.965,248.417 35.894 C 248.228 35.821,248.167 35.516,248.167 34.649 C 248.167 33.739,248.115 33.500,247.917 33.500 C 247.715 33.500,247.667 33.242,247.667 32.181 C 247.667 31.455,247.596 30.836,247.509 30.806 C 247.423 30.775,247.335 30.274,247.315 29.692 C 247.293 29.080,247.184 28.541,247.055 28.413 C 246.925 28.283,246.833 27.818,246.833 27.294 C 246.833 26.763,246.733 26.265,246.589 26.074 C 246.437 25.873,246.342 25.361,246.339 24.726 C 246.335 23.973,246.267 23.677,246.083 23.606 C 245.896 23.535,245.833 23.235,245.833 22.417 C 245.833 21.598,245.770 21.299,245.583 21.227 C 245.395 21.155,245.333 20.850,245.333 19.982 C 245.333 19.072,245.281 18.833,245.083 18.833 C 244.885 18.833,244.833 18.594,244.833 17.677 C 244.833 17.040,244.758 16.473,244.667 16.417 C 244.575 16.360,244.500 16.131,244.500 15.907 L 244.500 15.500 227.333 15.500 L 210.166 15.500 210.208 58.625 " stroke="none" fill="#0454a4" fill-rule="evenodd"></path><path id="path1" d="M377.500 14.750 C 377.500 14.917,377.333 15.000,377.000 15.000 C 376.667 15.000,376.500 15.083,376.500 15.250 C 376.500 15.408,376.341 15.500,376.071 15.500 C 375.641 15.500,374.667 16.301,374.667 16.654 C 374.667 16.753,374.554 16.833,374.417 16.833 C 374.279 16.833,374.167 16.946,374.167 17.083 C 374.167 17.221,374.054 17.333,373.917 17.333 C 373.779 17.333,373.667 17.446,373.667 17.583 C 373.667 17.721,373.554 17.833,373.417 17.833 C 373.250 17.833,373.167 18.000,373.167 18.333 C 373.167 18.667,373.083 18.833,372.917 18.833 C 372.764 18.833,372.667 18.989,372.667 19.232 C 372.667 19.452,372.554 19.674,372.417 19.727 C 372.210 19.806,372.167 20.256,372.167 22.333 C 372.167 24.411,372.210 24.860,372.417 24.940 C 372.580 25.002,372.667 25.262,372.667 25.684 C 372.667 26.150,372.737 26.333,372.917 26.333 C 373.073 26.333,373.167 26.491,373.167 26.755 C 373.167 26.987,373.279 27.220,373.417 27.273 C 373.554 27.326,373.667 27.473,373.667 27.601 C 373.667 27.729,373.779 27.833,373.917 27.833 C 374.054 27.833,374.167 27.946,374.167 28.083 C 374.167 28.221,374.247 28.333,374.345 28.333 C 374.576 28.333,375.000 28.757,375.000 28.988 C 375.000 29.086,375.104 29.167,375.232 29.167 C 375.360 29.167,375.508 29.279,375.560 29.417 C 375.613 29.554,375.846 29.667,376.078 29.667 C 376.342 29.667,376.500 29.760,376.500 29.917 C 376.500 30.098,376.686 30.167,377.172 30.167 C 377.615 30.167,377.876 30.252,377.940 30.417 C 378.018 30.622,378.438 30.667,380.273 30.667 C 382.108 30.667,382.528 30.622,382.606 30.417 C 382.669 30.254,382.928 30.167,383.351 30.167 C 383.817 30.167,384.000 30.096,384.000 29.917 C 384.000 29.750,384.167 29.667,384.500 29.667 C 384.833 29.667,385.000 29.583,385.000 29.417 C 385.000 29.279,385.113 29.167,385.250 29.167 C 385.387 29.167,385.500 29.054,385.500 28.917 C 385.500 28.779,385.581 28.667,385.680 28.667 C 386.057 28.667,387.333 27.198,387.333 26.763 C 387.333 26.492,387.426 26.333,387.583 26.333 C 387.763 26.333,387.833 26.150,387.833 25.684 C 387.833 25.262,387.920 25.002,388.083 24.940 C 388.289 24.861,388.333 24.430,388.333 22.505 C 388.333 20.538,388.294 20.167,388.083 20.167 C 387.903 20.167,387.833 19.981,387.833 19.500 C 387.833 19.019,387.764 18.833,387.583 18.833 C 387.417 18.833,387.333 18.667,387.333 18.333 C 387.333 18.058,387.258 17.833,387.167 17.833 C 387.075 17.833,387.000 17.721,387.000 17.583 C 387.000 17.446,386.887 17.333,386.750 17.333 C 386.613 17.333,386.500 17.221,386.500 17.083 C 386.500 16.946,386.387 16.833,386.250 16.833 C 386.113 16.833,386.000 16.721,386.000 16.583 C 386.000 16.446,385.921 16.333,385.825 16.333 C 385.729 16.333,385.477 16.146,385.265 15.917 C 385.052 15.688,384.718 15.500,384.523 15.500 C 384.317 15.500,384.167 15.394,384.167 15.250 C 384.167 15.083,384.000 15.000,383.667 15.000 C 383.333 15.000,383.167 14.917,383.167 14.750 C 383.167 14.538,382.741 14.500,380.333 14.500 C 377.926 14.500,377.500 14.538,377.500 14.750 M382.167 16.083 C 382.167 16.250,382.333 16.333,382.667 16.333 C 383.000 16.333,383.167 16.417,383.167 16.583 C 383.167 16.750,383.333 16.833,383.667 16.833 C 384.000 16.833,384.167 16.917,384.167 17.083 C 384.167 17.221,384.242 17.333,384.333 17.333 C 384.425 17.333,384.500 17.446,384.500 17.583 C 384.500 17.721,384.613 17.833,384.750 17.833 C 384.887 17.833,385.000 17.946,385.000 18.083 C 385.000 18.221,385.113 18.333,385.250 18.333 C 385.387 18.333,385.500 18.446,385.500 18.583 C 385.500 18.721,385.613 18.833,385.750 18.833 C 385.906 18.833,386.000 18.991,386.000 19.250 C 386.000 19.509,386.094 19.667,386.250 19.667 C 386.435 19.667,386.500 19.861,386.500 20.417 C 386.500 20.972,386.565 21.167,386.750 21.167 C 386.953 21.167,387.000 21.435,387.000 22.583 C 387.000 23.731,386.953 24.000,386.750 24.000 C 386.569 24.000,386.500 24.185,386.500 24.667 C 386.500 25.148,386.431 25.333,386.250 25.333 C 386.113 25.333,386.000 25.438,386.000 25.566 C 386.000 25.693,385.887 25.841,385.750 25.894 C 385.613 25.946,385.500 26.179,385.500 26.411 C 385.500 26.769,385.424 26.833,385.000 26.833 C 384.588 26.833,384.500 26.765,384.500 26.447 C 384.500 26.035,383.684 25.000,383.360 25.000 C 383.254 25.000,383.167 24.810,383.167 24.578 C 383.167 24.346,383.054 24.113,382.917 24.060 C 382.779 24.008,382.667 23.860,382.667 23.732 C 382.667 23.604,382.554 23.500,382.417 23.500 C 382.279 23.500,382.167 23.387,382.167 23.250 C 382.167 23.113,382.279 23.000,382.417 23.000 C 382.554 23.000,382.667 22.887,382.667 22.750 C 382.667 22.613,382.779 22.500,382.917 22.500 C 383.054 22.500,383.167 22.387,383.167 22.250 C 383.167 22.113,383.279 22.000,383.417 22.000 C 383.625 22.000,383.667 21.666,383.667 19.995 C 383.667 18.366,383.620 17.972,383.417 17.894 C 383.279 17.841,383.167 17.693,383.167 17.566 C 383.167 17.438,383.062 17.333,382.934 17.333 C 382.807 17.333,382.659 17.221,382.606 17.083 C 382.527 16.876,382.070 16.833,379.927 16.833 C 377.699 16.833,377.357 16.799,377.440 16.583 C 377.492 16.446,377.715 16.333,377.934 16.333 C 378.178 16.333,378.333 16.236,378.333 16.083 C 378.333 15.876,378.657 15.833,380.250 15.833 C 381.843 15.833,382.167 15.876,382.167 16.083 M377.000 22.333 L 377.000 27.833 378.410 27.833 L 379.821 27.833 379.869 26.303 C 379.914 24.870,379.934 24.790,380.196 25.053 C 380.350 25.207,380.557 25.333,380.655 25.333 C 380.753 25.333,380.833 25.531,380.833 25.773 C 380.833 26.027,381.009 26.374,381.250 26.598 C 381.479 26.810,381.667 27.063,381.667 27.159 C 381.667 27.255,381.779 27.333,381.917 27.333 C 382.054 27.333,382.167 27.446,382.167 27.583 C 382.167 27.769,382.361 27.833,382.917 27.833 C 383.472 27.833,383.667 27.898,383.667 28.083 C 383.667 28.221,383.554 28.333,383.417 28.333 C 383.279 28.333,383.167 28.408,383.167 28.500 C 383.167 28.592,382.864 28.667,382.495 28.667 C 382.051 28.667,381.790 28.752,381.727 28.917 C 381.652 29.111,381.324 29.167,380.250 29.167 C 379.176 29.167,378.848 29.111,378.773 28.917 C 378.713 28.760,378.458 28.667,378.089 28.667 C 377.765 28.667,377.500 28.592,377.500 28.500 C 377.500 28.408,377.396 28.333,377.268 28.333 C 377.140 28.333,376.992 28.221,376.940 28.083 C 376.887 27.946,376.654 27.833,376.422 27.833 C 376.158 27.833,376.000 27.740,376.000 27.583 C 376.000 27.446,375.887 27.333,375.750 27.333 C 375.613 27.333,375.500 27.221,375.500 27.083 C 375.500 26.946,375.387 26.833,375.250 26.833 C 375.099 26.833,375.000 26.679,375.000 26.441 C 375.000 26.225,374.813 25.846,374.583 25.599 C 374.354 25.352,374.167 24.971,374.167 24.753 C 374.167 24.535,374.054 24.245,373.917 24.107 C 373.729 23.920,373.667 23.458,373.667 22.262 C 373.667 20.955,373.712 20.667,373.917 20.667 C 374.081 20.667,374.167 20.502,374.167 20.184 C 374.167 19.910,374.274 19.661,374.417 19.606 C 374.554 19.554,374.667 19.358,374.667 19.172 C 374.667 18.986,374.742 18.833,374.833 18.833 C 374.925 18.833,375.000 18.721,375.000 18.583 C 375.000 18.446,375.113 18.333,375.250 18.333 C 375.387 18.333,375.500 18.221,375.500 18.083 C 375.500 17.946,375.613 17.833,375.750 17.833 C 375.887 17.833,376.000 17.721,376.000 17.583 C 376.000 17.446,376.113 17.333,376.250 17.333 C 376.387 17.333,376.500 17.221,376.500 17.083 C 376.500 16.946,376.613 16.833,376.750 16.833 C 376.967 16.833,377.000 17.556,377.000 22.333 M380.833 19.417 C 380.833 19.554,380.908 19.667,381.000 19.667 C 381.092 19.667,381.167 19.892,381.167 20.167 C 381.167 20.589,381.102 20.667,380.750 20.667 C 380.491 20.667,380.333 20.761,380.333 20.917 C 380.333 21.054,380.221 21.167,380.083 21.167 C 379.889 21.167,379.833 20.944,379.833 20.167 L 379.833 19.167 380.333 19.167 C 380.667 19.167,380.833 19.250,380.833 19.417 M155.487 68.208 C 155.437 68.566,155.463 68.771,155.547 68.687 C 155.627 68.606,155.666 68.325,155.633 68.062 C 155.578 67.621,155.566 67.633,155.487 68.208 M17.833 113.083 C 17.833 115.713,17.797 116.167,17.583 116.167 C 17.369 116.167,17.333 116.648,17.333 119.500 C 17.333 122.396,17.300 122.833,17.076 122.833 C 16.864 122.833,16.827 123.033,16.867 123.958 L 16.917 125.083 18.292 125.132 L 19.667 125.180 19.667 122.757 C 19.667 120.714,19.706 120.333,19.917 120.333 C 20.126 120.333,20.167 119.991,20.167 118.250 C 20.167 116.509,20.208 116.167,20.417 116.167 C 20.609 116.167,20.667 116.380,20.667 117.083 C 20.667 117.787,20.725 118.000,20.917 118.000 C 21.096 118.000,21.167 118.183,21.167 118.649 C 21.167 119.072,21.254 119.331,21.417 119.394 C 21.582 119.457,21.667 119.718,21.667 120.161 C 21.667 120.648,21.736 120.833,21.917 120.833 C 22.083 120.833,22.167 121.000,22.167 121.333 C 22.167 121.608,22.242 121.833,22.333 121.833 C 22.425 121.833,22.500 122.133,22.500 122.500 C 22.500 122.981,22.569 123.167,22.750 123.167 C 22.935 123.167,23.000 123.361,23.000 123.917 L 23.000 124.667 24.417 124.667 L 25.833 124.667 25.833 123.917 C 25.833 123.361,25.898 123.167,26.083 123.167 C 26.236 123.167,26.333 123.011,26.333 122.768 C 26.333 122.548,26.446 122.326,26.583 122.273 C 26.748 122.210,26.833 121.949,26.833 121.505 C 26.833 121.019,26.902 120.833,27.083 120.833 C 27.263 120.833,27.333 120.650,27.333 120.184 C 27.333 119.762,27.420 119.502,27.583 119.440 C 27.748 119.376,27.833 119.115,27.833 118.672 C 27.833 118.186,27.902 118.000,28.083 118.000 C 28.250 118.000,28.333 117.833,28.333 117.500 C 28.333 117.225,28.408 117.000,28.500 117.000 C 28.592 117.000,28.667 116.700,28.667 116.333 C 28.667 115.852,28.736 115.667,28.917 115.667 C 29.133 115.667,29.167 116.278,29.167 120.167 C 29.167 124.056,29.201 124.667,29.417 124.667 C 29.554 124.667,29.667 124.779,29.667 124.917 C 29.667 125.115,29.907 125.167,30.833 125.167 L 32.000 125.167 32.000 121.583 C 32.000 119.306,31.939 118.000,31.833 118.000 C 31.727 118.000,31.667 116.643,31.667 114.264 C 31.667 109.575,31.868 110.000,29.649 110.000 L 27.833 110.000 27.833 110.667 C 27.833 111.148,27.764 111.333,27.583 111.333 C 27.398 111.333,27.333 111.528,27.333 112.083 C 27.333 112.639,27.269 112.833,27.083 112.833 C 26.903 112.833,26.833 113.019,26.833 113.500 C 26.833 113.981,26.764 114.167,26.583 114.167 C 26.419 114.167,26.333 114.331,26.333 114.649 C 26.333 114.924,26.226 115.172,26.083 115.227 C 25.918 115.290,25.833 115.551,25.833 115.995 C 25.833 116.364,25.768 116.667,25.688 116.667 C 25.608 116.667,25.495 116.967,25.436 117.333 C 25.377 117.700,25.255 118.000,25.165 118.000 C 25.074 118.000,25.000 118.337,25.000 118.750 C 25.000 119.306,24.935 119.500,24.750 119.500 C 24.583 119.500,24.500 119.333,24.500 119.000 C 24.500 118.667,24.417 118.500,24.250 118.500 C 24.069 118.500,24.000 118.314,24.000 117.828 C 24.000 117.385,23.915 117.124,23.750 117.060 C 23.587 116.998,23.500 116.738,23.500 116.316 C 23.500 115.850,23.429 115.667,23.250 115.667 C 23.069 115.667,23.000 115.481,23.000 114.995 C 23.000 114.551,22.915 114.290,22.750 114.227 C 22.613 114.174,22.500 113.952,22.500 113.732 C 22.500 113.513,22.425 113.333,22.333 113.333 C 22.242 113.333,22.167 113.031,22.167 112.661 C 22.167 112.218,22.082 111.957,21.917 111.894 C 21.754 111.831,21.667 111.572,21.667 111.149 C 21.667 110.683,21.596 110.500,21.417 110.500 C 21.279 110.500,21.167 110.388,21.167 110.250 C 21.167 110.044,20.870 110.000,19.500 110.000 L 17.833 110.000 17.833 113.083 M40.667 116.089 C 40.667 121.347,40.701 122.190,40.917 122.273 C 41.054 122.326,41.167 122.548,41.167 122.768 C 41.167 122.987,41.242 123.167,41.333 123.167 C 41.425 123.167,41.500 123.279,41.500 123.417 C 41.500 123.554,41.612 123.667,41.750 123.667 C 41.887 123.667,42.000 123.779,42.000 123.917 C 42.000 124.054,42.112 124.167,42.250 124.167 C 42.387 124.167,42.500 124.279,42.500 124.417 C 42.500 124.581,42.665 124.667,42.982 124.667 C 43.257 124.667,43.506 124.774,43.560 124.917 C 43.639 125.122,44.061 125.167,45.911 125.167 C 47.805 125.167,48.167 125.127,48.167 124.917 C 48.167 124.750,48.333 124.667,48.667 124.667 C 49.000 124.667,49.167 124.583,49.167 124.417 C 49.167 124.270,49.319 124.167,49.536 124.167 C 49.925 124.167,50.667 123.439,50.667 123.057 C 50.667 122.934,50.742 122.833,50.833 122.833 C 50.925 122.833,51.000 122.608,51.000 122.333 C 51.000 122.000,51.083 121.833,51.250 121.833 C 51.468 121.833,51.500 121.065,51.500 115.917 L 51.500 110.000 50.083 110.000 L 48.667 110.000 48.667 115.417 C 48.667 120.120,48.634 120.833,48.417 120.833 C 48.250 120.833,48.167 121.000,48.167 121.333 C 48.167 121.667,48.083 121.833,47.917 121.833 C 47.779 121.833,47.667 121.946,47.667 122.083 C 47.667 122.239,47.509 122.333,47.250 122.333 C 46.991 122.333,46.833 122.428,46.833 122.583 C 46.833 122.769,46.639 122.833,46.083 122.833 C 45.528 122.833,45.333 122.769,45.333 122.583 C 45.333 122.428,45.176 122.333,44.917 122.333 C 44.657 122.333,44.500 122.239,44.500 122.083 C 44.500 121.946,44.387 121.833,44.250 121.833 C 44.112 121.833,44.000 121.689,44.000 121.512 C 44.000 121.335,43.887 121.078,43.750 120.940 C 43.594 120.784,43.500 120.374,43.500 119.845 C 43.500 119.205,43.439 119.000,43.250 119.000 C 43.034 119.000,43.000 118.389,43.000 114.500 L 43.000 110.000 41.833 110.000 L 40.667 110.000 40.667 116.089 M60.167 117.586 L 60.167 125.172 64.625 125.128 L 69.083 125.083 69.083 123.750 L 69.083 122.417 66.042 122.371 L 63.000 122.326 63.000 116.163 L 63.000 110.000 61.583 110.000 L 60.167 110.000 60.167 117.586 M73.000 111.167 L 73.000 112.333 75.083 112.333 L 77.167 112.333 77.167 118.750 L 77.167 125.167 78.583 125.167 L 80.000 125.167 80.000 118.750 L 80.000 112.333 82.167 112.333 L 84.333 112.333 84.333 111.167 L 84.333 110.000 78.667 110.000 L 73.000 110.000 73.000 111.167 M91.500 117.583 L 91.500 125.167 92.667 125.167 L 93.833 125.167 93.833 117.583 L 93.833 110.000 92.667 110.000 L 91.500 110.000 91.500 117.583 M103.333 110.917 C 103.333 111.620,103.275 111.833,103.083 111.833 C 102.869 111.833,102.833 112.315,102.833 115.167 C 102.833 118.019,102.797 118.500,102.583 118.500 C 102.369 118.500,102.333 118.982,102.333 121.841 L 102.333 125.181 103.542 125.132 L 104.750 125.083 104.801 124.375 C 104.829 123.985,104.923 123.667,105.010 123.667 C 105.104 123.667,105.167 122.030,105.167 119.589 C 105.167 116.032,105.199 115.523,105.417 115.606 C 105.580 115.669,105.667 115.928,105.667 116.351 C 105.667 116.817,105.737 117.000,105.917 117.000 C 106.102 117.000,106.167 117.194,106.167 117.750 C 106.167 118.306,106.231 118.500,106.417 118.500 C 106.597 118.500,106.667 118.685,106.667 119.167 C 106.667 119.648,106.736 119.833,106.917 119.833 C 107.102 119.833,107.167 120.028,107.167 120.583 C 107.167 121.139,107.231 121.333,107.417 121.333 C 107.597 121.333,107.667 121.517,107.667 121.990 C 107.667 122.351,107.742 122.693,107.833 122.750 C 107.925 122.807,108.000 123.068,108.000 123.331 C 108.000 123.594,108.112 123.922,108.250 124.060 C 108.388 124.197,108.500 124.390,108.500 124.488 C 108.500 124.599,108.972 124.667,109.750 124.667 L 111.000 124.667 111.000 124.167 C 111.000 123.892,111.075 123.667,111.167 123.667 C 111.258 123.667,111.333 123.477,111.333 123.245 C 111.333 123.013,111.446 122.780,111.583 122.727 C 111.746 122.664,111.833 122.405,111.833 121.982 C 111.833 121.517,111.904 121.333,112.083 121.333 C 112.269 121.333,112.333 121.139,112.333 120.583 C 112.333 120.028,112.398 119.833,112.583 119.833 C 112.764 119.833,112.833 119.648,112.833 119.167 C 112.833 118.685,112.903 118.500,113.083 118.500 C 113.269 118.500,113.333 118.306,113.333 117.750 C 113.333 117.194,113.398 117.000,113.583 117.000 C 113.730 117.000,113.836 116.845,113.839 116.625 C 113.842 116.419,113.954 116.104,114.089 115.926 C 114.307 115.638,114.333 115.913,114.333 118.468 C 114.333 120.202,114.397 121.333,114.495 121.333 C 114.586 121.333,114.676 122.144,114.703 123.208 L 114.750 125.083 116.125 125.132 L 117.500 125.180 117.500 124.007 C 117.500 123.336,117.429 122.833,117.333 122.833 C 117.227 122.833,117.167 121.470,117.167 119.078 C 117.167 115.894,117.129 115.308,116.917 115.227 C 116.709 115.147,116.667 114.692,116.667 112.566 L 116.667 110.000 115.000 110.000 C 113.630 110.000,113.333 110.044,113.333 110.250 C 113.333 110.388,113.221 110.500,113.083 110.500 C 112.903 110.500,112.833 110.685,112.833 111.167 C 112.833 111.648,112.764 111.833,112.583 111.833 C 112.398 111.833,112.333 112.028,112.333 112.583 C 112.333 113.139,112.269 113.333,112.083 113.333 C 111.904 113.333,111.833 113.517,111.833 113.982 C 111.833 114.405,111.746 114.664,111.583 114.727 C 111.446 114.780,111.333 115.013,111.333 115.245 C 111.333 115.477,111.258 115.667,111.167 115.667 C 111.075 115.667,111.000 115.959,111.000 116.316 C 111.000 116.738,110.913 116.998,110.750 117.060 C 110.585 117.124,110.500 117.385,110.500 117.828 C 110.500 118.314,110.431 118.500,110.250 118.500 C 110.083 118.500,110.000 118.667,110.000 119.000 C 110.000 119.333,109.917 119.500,109.750 119.500 C 109.565 119.500,109.500 119.306,109.500 118.750 C 109.500 118.194,109.435 118.000,109.250 118.000 C 109.069 118.000,109.000 117.815,109.000 117.333 C 109.000 116.852,108.931 116.667,108.750 116.667 C 108.565 116.667,108.500 116.472,108.500 115.917 C 108.500 115.361,108.435 115.167,108.250 115.167 C 108.069 115.167,108.000 114.981,108.000 114.500 C 108.000 114.133,107.925 113.833,107.833 113.833 C 107.742 113.833,107.667 113.608,107.667 113.333 C 107.667 113.000,107.583 112.833,107.417 112.833 C 107.231 112.833,107.167 112.639,107.167 112.083 C 107.167 111.528,107.102 111.333,106.917 111.333 C 106.736 111.333,106.667 111.148,106.667 110.667 L 106.667 110.000 105.000 110.000 L 103.333 110.000 103.333 110.917 M125.667 117.583 L 125.667 125.167 129.917 125.167 L 134.167 125.167 134.167 123.750 L 134.167 122.333 131.333 122.333 L 128.500 122.333 128.500 120.417 L 128.500 118.500 131.083 118.500 L 133.667 118.500 133.667 117.333 L 133.667 116.167 131.083 116.167 L 128.500 116.167 128.500 114.250 L 128.500 112.333 131.333 112.333 L 134.167 112.333 134.167 111.167 L 134.167 110.000 129.917 110.000 L 125.667 110.000 125.667 117.583 M142.373 117.542 L 142.417 125.083 145.379 125.129 C 147.906 125.168,148.355 125.137,148.438 124.921 C 148.509 124.737,148.783 124.667,149.434 124.667 C 150.122 124.667,150.333 124.608,150.333 124.417 C 150.333 124.250,150.500 124.167,150.833 124.167 C 151.167 124.167,151.333 124.083,151.333 123.917 C 151.333 123.779,151.478 123.667,151.655 123.667 C 152.099 123.667,153.167 122.622,153.167 122.189 C 153.167 121.984,153.273 121.833,153.417 121.833 C 153.554 121.833,153.667 121.729,153.667 121.601 C 153.667 121.473,153.779 121.326,153.917 121.273 C 154.082 121.210,154.167 120.949,154.167 120.505 C 154.167 120.019,154.236 119.833,154.417 119.833 C 154.628 119.833,154.667 119.435,154.667 117.250 C 154.667 115.065,154.628 114.667,154.417 114.667 C 154.236 114.667,154.167 114.481,154.167 114.000 C 154.167 113.519,154.097 113.333,153.917 113.333 C 153.750 113.333,153.667 113.167,153.667 112.833 C 153.667 112.500,153.583 112.333,153.417 112.333 C 153.279 112.333,153.167 112.221,153.167 112.083 C 153.167 111.946,153.054 111.833,152.917 111.833 C 152.779 111.833,152.667 111.721,152.667 111.583 C 152.667 111.428,152.509 111.333,152.250 111.333 C 151.991 111.333,151.833 111.239,151.833 111.083 C 151.833 110.946,151.721 110.833,151.583 110.833 C 151.446 110.833,151.333 110.763,151.333 110.677 C 151.333 110.591,150.996 110.470,150.583 110.408 C 150.171 110.346,149.833 110.229,149.833 110.148 C 149.833 110.066,148.151 110.000,146.082 110.000 L 142.330 110.000 142.373 117.542 M162.278 110.111 C 162.139 110.249,162.134 124.277,162.272 124.792 C 162.365 125.140,162.464 125.167,163.686 125.167 L 165.000 125.167 165.000 117.583 L 165.000 110.000 163.694 110.000 C 162.976 110.000,162.339 110.050,162.278 110.111 M177.500 110.411 C 177.500 110.675,177.407 110.833,177.250 110.833 C 177.065 110.833,177.000 111.028,177.000 111.583 C 177.000 112.139,176.935 112.333,176.750 112.333 C 176.571 112.333,176.500 112.517,176.500 112.982 C 176.500 113.405,176.413 113.664,176.250 113.727 C 176.085 113.790,176.000 114.051,176.000 114.495 C 176.000 114.981,175.931 115.167,175.750 115.167 C 175.565 115.167,175.500 115.361,175.500 115.917 C 175.500 116.472,175.435 116.667,175.250 116.667 C 175.069 116.667,175.000 116.852,175.000 117.333 C 175.000 117.700,174.925 118.000,174.833 118.000 C 174.742 118.000,174.667 118.337,174.667 118.750 C 174.667 119.306,174.602 119.500,174.417 119.500 C 174.264 119.500,174.167 119.655,174.167 119.899 C 174.167 120.118,174.054 120.341,173.917 120.394 C 173.752 120.457,173.667 120.718,173.667 121.161 C 173.667 121.648,173.598 121.833,173.417 121.833 C 173.231 121.833,173.167 122.028,173.167 122.583 C 173.167 123.150,173.103 123.333,172.908 123.333 C 172.701 123.333,172.659 123.507,172.700 124.208 L 172.750 125.083 174.125 125.132 L 175.500 125.180 175.500 124.673 C 175.500 124.334,175.583 124.167,175.750 124.167 C 175.929 124.167,176.000 123.983,176.000 123.518 C 176.000 123.095,176.087 122.836,176.250 122.773 C 176.415 122.710,176.500 122.449,176.500 122.005 C 176.500 121.519,176.569 121.333,176.750 121.333 C 176.917 121.333,177.000 121.167,177.000 120.833 L 177.000 120.333 178.917 120.333 C 180.509 120.333,180.833 120.376,180.833 120.583 C 180.833 120.721,180.908 120.833,181.000 120.833 C 181.092 120.833,181.167 121.044,181.167 121.301 C 181.167 121.559,181.277 121.915,181.411 122.093 C 181.546 122.271,181.658 122.585,181.661 122.792 C 181.664 123.012,181.770 123.167,181.917 123.167 C 182.102 123.167,182.167 123.361,182.167 123.917 C 182.167 124.472,182.231 124.667,182.417 124.667 C 182.554 124.667,182.667 124.782,182.667 124.923 C 182.667 125.138,182.894 125.172,184.042 125.132 L 185.417 125.083 185.468 124.375 C 185.508 123.823,185.462 123.667,185.260 123.667 C 185.068 123.667,185.000 123.492,185.000 123.000 C 185.000 122.519,184.931 122.333,184.750 122.333 C 184.565 122.333,184.500 122.139,184.500 121.583 C 184.500 121.171,184.425 120.833,184.333 120.833 C 184.242 120.833,184.167 120.614,184.167 120.345 C 184.167 120.077,184.054 119.745,183.917 119.607 C 183.779 119.470,183.667 119.132,183.667 118.857 C 183.667 118.582,183.554 118.245,183.417 118.107 C 183.279 117.970,183.167 117.589,183.167 117.262 C 183.167 116.844,183.092 116.667,182.917 116.667 C 182.736 116.667,182.667 116.481,182.667 115.995 C 182.667 115.551,182.582 115.290,182.417 115.227 C 182.274 115.172,182.167 114.924,182.167 114.649 C 182.167 114.331,182.081 114.167,181.917 114.167 C 181.736 114.167,181.667 113.981,181.667 113.500 C 181.667 113.019,181.597 112.833,181.417 112.833 C 181.231 112.833,181.167 112.639,181.167 112.083 C 181.167 111.671,181.096 111.333,181.010 111.333 C 180.924 111.333,180.830 111.052,180.802 110.708 L 180.750 110.083 179.125 110.036 L 177.500 109.988 177.500 110.411 M203.500 115.589 C 203.500 120.402,203.535 121.190,203.750 121.273 C 203.904 121.332,204.000 121.586,204.000 121.934 C 204.000 122.482,204.463 123.167,204.833 123.167 C 204.925 123.167,205.000 123.392,205.000 123.667 C 205.000 124.111,205.056 124.167,205.500 124.167 C 205.833 124.167,206.000 124.250,206.000 124.417 C 206.000 124.569,206.155 124.667,206.399 124.667 C 206.618 124.667,206.841 124.779,206.894 124.917 C 206.972 125.120,207.375 125.167,209.078 125.167 C 210.823 125.167,211.167 125.126,211.167 124.917 C 211.167 124.736,211.352 124.667,211.833 124.667 C 212.315 124.667,212.500 124.597,212.500 124.417 C 212.500 124.279,212.612 124.167,212.750 124.167 C 212.887 124.167,213.000 124.054,213.000 123.917 C 213.000 123.779,213.112 123.667,213.250 123.667 C 213.387 123.667,213.500 123.554,213.500 123.417 C 213.500 123.279,213.612 123.167,213.750 123.167 C 213.906 123.167,214.000 123.009,214.000 122.750 C 214.000 122.491,214.094 122.333,214.250 122.333 C 214.444 122.333,214.500 122.111,214.500 121.333 C 214.500 120.556,214.556 120.333,214.750 120.333 C 214.967 120.333,215.000 119.648,215.000 115.167 L 215.000 110.000 213.583 110.000 L 212.167 110.000 212.167 115.000 C 212.167 119.333,212.133 120.000,211.917 120.000 C 211.736 120.000,211.667 120.185,211.667 120.667 C 211.667 121.148,211.597 121.333,211.417 121.333 C 211.279 121.333,211.167 121.446,211.167 121.583 C 211.167 121.721,211.054 121.833,210.917 121.833 C 210.779 121.833,210.667 121.946,210.667 122.083 C 210.667 122.236,210.511 122.333,210.268 122.333 C 210.048 122.333,209.826 122.446,209.773 122.583 C 209.710 122.748,209.449 122.833,209.005 122.833 C 208.519 122.833,208.333 122.764,208.333 122.583 C 208.333 122.446,208.221 122.333,208.083 122.333 C 207.946 122.333,207.833 122.221,207.833 122.083 C 207.833 121.946,207.721 121.833,207.583 121.833 C 207.446 121.833,207.333 121.721,207.333 121.583 C 207.333 121.446,207.221 121.333,207.083 121.333 C 206.917 121.333,206.833 121.167,206.833 120.833 C 206.833 120.500,206.750 120.333,206.583 120.333 C 206.366 120.333,206.333 119.648,206.333 115.167 L 206.333 110.000 204.917 110.000 L 203.500 110.000 203.500 115.589 M223.500 117.583 L 223.500 125.167 224.667 125.167 L 225.833 125.167 225.833 120.167 C 225.833 115.833,225.867 115.167,226.083 115.167 C 226.240 115.167,226.333 115.325,226.333 115.589 C 226.333 115.821,226.446 116.054,226.583 116.106 C 226.721 116.159,226.833 116.382,226.833 116.601 C 226.833 116.845,226.931 117.000,227.083 117.000 C 227.221 117.000,227.333 117.112,227.333 117.250 C 227.333 117.388,227.446 117.500,227.583 117.500 C 227.750 117.500,227.833 117.667,227.833 118.000 C 227.833 118.333,227.917 118.500,228.083 118.500 C 228.228 118.500,228.333 118.651,228.333 118.856 C 228.333 119.052,228.521 119.386,228.750 119.598 C 228.984 119.815,229.167 120.170,229.167 120.409 C 229.167 120.675,229.260 120.833,229.417 120.833 C 229.554 120.833,229.667 120.946,229.667 121.083 C 229.667 121.221,229.779 121.333,229.917 121.333 C 230.083 121.333,230.167 121.500,230.167 121.833 C 230.167 122.167,230.250 122.333,230.417 122.333 C 230.572 122.333,230.667 122.491,230.667 122.750 C 230.667 123.009,230.761 123.167,230.917 123.167 C 231.054 123.167,231.167 123.279,231.167 123.417 C 231.167 123.554,231.279 123.667,231.417 123.667 C 231.573 123.667,231.667 123.825,231.667 124.090 C 231.667 124.932,232.140 125.187,233.603 125.132 L 234.917 125.083 234.960 117.535 L 235.003 109.987 233.543 110.035 L 232.083 110.083 232.039 114.542 C 232.011 117.323,231.933 119.000,231.831 119.000 C 231.740 119.000,231.667 118.810,231.667 118.578 C 231.667 118.346,231.554 118.113,231.417 118.060 C 231.279 118.008,231.164 117.841,231.161 117.691 C 231.154 117.361,230.603 116.667,230.348 116.667 C 230.248 116.667,230.167 116.442,230.167 116.167 C 230.167 115.833,230.083 115.667,229.917 115.667 C 229.779 115.667,229.667 115.554,229.667 115.417 C 229.667 115.279,229.554 115.167,229.417 115.167 C 229.250 115.167,229.167 115.000,229.167 114.667 C 229.167 114.333,229.083 114.167,228.917 114.167 C 228.761 114.167,228.667 114.009,228.667 113.750 C 228.667 113.521,228.592 113.333,228.500 113.333 C 228.408 113.333,228.333 113.221,228.333 113.083 C 228.333 112.946,228.221 112.833,228.083 112.833 C 227.927 112.833,227.833 112.675,227.833 112.411 C 227.833 112.179,227.721 111.946,227.583 111.894 C 227.446 111.841,227.333 111.693,227.333 111.566 C 227.333 111.438,227.221 111.333,227.083 111.333 C 226.944 111.333,226.833 111.185,226.833 111.000 C 226.833 110.281,226.271 110.000,224.833 110.000 L 223.500 110.000 223.500 117.583 M243.500 117.590 L 243.500 125.180 244.875 125.132 L 246.250 125.083 246.293 117.542 L 246.337 110.000 244.918 110.000 L 243.500 110.000 243.500 117.590 M253.500 111.167 C 253.500 112.093,253.552 112.333,253.750 112.333 C 253.931 112.333,254.000 112.519,254.000 113.000 C 254.000 113.367,254.075 113.667,254.167 113.667 C 254.258 113.667,254.333 113.969,254.333 114.339 C 254.333 114.782,254.418 115.043,254.583 115.106 C 254.745 115.168,254.833 115.426,254.833 115.833 C 254.833 116.240,254.922 116.498,255.083 116.560 C 255.248 116.624,255.333 116.885,255.333 117.328 C 255.333 117.814,255.402 118.000,255.583 118.000 C 255.764 118.000,255.833 118.186,255.833 118.672 C 255.833 119.115,255.918 119.376,256.083 119.440 C 256.246 119.502,256.333 119.762,256.333 120.184 C 256.333 120.650,256.404 120.833,256.583 120.833 C 256.769 120.833,256.833 121.028,256.833 121.583 C 256.833 121.996,256.908 122.333,257.000 122.333 C 257.092 122.333,257.167 122.553,257.167 122.821 C 257.167 123.090,257.279 123.422,257.417 123.560 C 257.554 123.697,257.667 123.996,257.667 124.224 C 257.667 125.099,257.775 125.167,259.184 125.167 C 260.243 125.167,260.500 125.118,260.500 124.917 C 260.500 124.779,260.612 124.667,260.750 124.667 C 260.917 124.667,261.000 124.500,261.000 124.167 C 261.000 123.833,261.083 123.667,261.250 123.667 C 261.429 123.667,261.500 123.483,261.500 123.018 C 261.500 122.595,261.587 122.336,261.750 122.273 C 261.915 122.210,262.000 121.949,262.000 121.505 C 262.000 121.019,262.069 120.833,262.250 120.833 C 262.429 120.833,262.500 120.650,262.500 120.184 C 262.500 119.762,262.587 119.502,262.750 119.440 C 262.915 119.376,263.000 119.115,263.000 118.672 C 263.000 118.186,263.069 118.000,263.250 118.000 C 263.417 118.000,263.500 117.833,263.500 117.500 C 263.500 117.225,263.575 117.000,263.667 117.000 C 263.758 117.000,263.833 116.700,263.833 116.333 C 263.833 115.852,263.903 115.667,264.083 115.667 C 264.269 115.667,264.333 115.472,264.333 114.917 C 264.333 114.361,264.398 114.167,264.583 114.167 C 264.764 114.167,264.833 113.981,264.833 113.500 C 264.833 113.019,264.903 112.833,265.083 112.833 C 265.269 112.833,265.333 112.639,265.333 112.083 C 265.333 111.528,265.398 111.333,265.583 111.333 C 265.764 111.333,265.833 111.148,265.833 110.667 L 265.833 110.000 264.417 110.000 C 263.269 110.000,263.000 110.047,263.000 110.250 C 263.000 110.388,262.887 110.500,262.750 110.500 C 262.569 110.500,262.500 110.685,262.500 111.167 C 262.500 111.648,262.431 111.833,262.250 111.833 C 262.065 111.833,262.000 112.028,262.000 112.583 C 262.000 113.139,261.935 113.333,261.750 113.333 C 261.571 113.333,261.500 113.517,261.500 113.982 C 261.500 114.405,261.413 114.664,261.250 114.727 C 261.087 114.790,261.000 115.049,261.000 115.477 C 261.000 115.905,260.913 116.164,260.750 116.227 C 260.593 116.287,260.500 116.542,260.500 116.911 C 260.500 117.235,260.425 117.500,260.333 117.500 C 260.242 117.500,260.167 117.837,260.167 118.250 C 260.167 118.806,260.102 119.000,259.917 119.000 C 259.736 119.000,259.667 119.185,259.667 119.667 C 259.667 120.148,259.597 120.333,259.417 120.333 C 259.228 120.333,259.167 120.129,259.167 119.495 C 259.167 118.903,259.093 118.628,258.917 118.560 C 258.753 118.498,258.667 118.238,258.667 117.810 C 258.667 117.383,258.580 117.123,258.417 117.060 C 258.254 116.998,258.167 116.738,258.167 116.316 C 258.167 115.850,258.096 115.667,257.917 115.667 C 257.731 115.667,257.667 115.472,257.667 114.917 C 257.667 114.361,257.602 114.167,257.417 114.167 C 257.236 114.167,257.167 113.981,257.167 113.500 C 257.167 113.133,257.092 112.833,257.000 112.833 C 256.908 112.833,256.833 112.468,256.833 112.020 C 256.833 111.501,256.743 111.133,256.583 111.000 C 256.446 110.886,256.333 110.614,256.333 110.396 C 256.333 110.010,256.297 110.000,254.917 110.000 L 253.500 110.000 253.500 111.167 M273.000 117.583 L 273.000 125.167 277.250 125.167 L 281.500 125.167 281.500 123.750 L 281.500 122.333 278.417 122.333 L 275.333 122.333 275.333 120.421 L 275.333 118.508 278.125 118.462 L 280.917 118.417 280.966 117.292 L 281.015 116.167 278.174 116.167 L 275.333 116.167 275.333 114.250 L 275.333 112.333 278.167 112.333 L 281.000 112.333 281.000 111.167 L 281.000 110.000 277.000 110.000 L 273.000 110.000 273.000 117.583 M289.105 110.375 C 288.971 110.876,288.971 123.980,289.105 124.652 L 289.211 125.179 290.564 125.131 L 291.917 125.083 291.962 122.042 L 292.008 119.000 293.170 119.000 C 294.093 119.000,294.333 119.052,294.333 119.250 C 294.333 119.388,294.446 119.500,294.583 119.500 C 294.721 119.500,294.833 119.575,294.833 119.667 C 294.833 119.758,294.946 119.833,295.083 119.833 C 295.250 119.833,295.333 120.000,295.333 120.333 C 295.333 120.608,295.408 120.833,295.500 120.833 C 295.595 120.833,295.667 121.333,295.667 122.000 C 295.667 122.926,295.718 123.167,295.917 123.167 C 296.102 123.167,296.167 123.361,296.167 123.917 C 296.167 124.472,296.231 124.667,296.417 124.667 C 296.554 124.667,296.667 124.782,296.667 124.923 C 296.667 125.138,296.894 125.172,298.042 125.132 L 299.417 125.083 299.468 124.457 C 299.506 124.009,299.446 123.802,299.260 123.731 C 299.086 123.664,299.000 123.416,299.000 122.982 C 299.000 122.517,298.929 122.333,298.750 122.333 C 298.556 122.333,298.500 122.111,298.500 121.333 C 298.500 120.778,298.426 120.333,298.333 120.333 C 298.242 120.333,298.167 120.033,298.167 119.667 C 298.167 119.185,298.097 119.000,297.917 119.000 C 297.760 119.000,297.667 118.842,297.667 118.578 C 297.667 118.346,297.554 118.113,297.417 118.060 C 297.279 118.008,297.167 117.860,297.167 117.732 C 297.167 117.604,297.279 117.500,297.417 117.500 C 297.554 117.500,297.667 117.388,297.667 117.250 C 297.667 117.112,297.752 117.000,297.857 117.000 C 298.191 117.000,298.489 116.435,298.495 115.792 C 298.498 115.350,298.573 115.167,298.750 115.167 C 298.942 115.167,299.000 114.954,299.000 114.250 C 299.000 113.546,298.942 113.333,298.750 113.333 C 298.565 113.333,298.500 113.139,298.500 112.583 C 298.500 112.171,298.441 111.833,298.370 111.833 C 298.298 111.833,298.155 111.608,298.051 111.333 C 297.929 111.010,297.746 110.833,297.532 110.833 C 297.351 110.833,297.159 110.721,297.106 110.583 C 297.054 110.446,296.821 110.333,296.589 110.333 C 296.357 110.333,296.167 110.258,296.167 110.167 C 296.167 109.758,289.215 109.964,289.105 110.375 M308.280 110.403 C 308.041 110.625,307.711 110.832,307.547 110.863 C 307.366 110.898,307.230 111.097,307.197 111.376 C 307.167 111.638,307.042 111.833,306.906 111.833 C 306.710 111.833,306.667 112.230,306.667 114.000 C 306.667 115.815,306.707 116.167,306.917 116.167 C 307.072 116.167,307.167 116.324,307.167 116.583 C 307.167 116.917,307.250 117.000,307.583 117.000 C 307.843 117.000,308.000 117.094,308.000 117.250 C 308.000 117.388,308.112 117.500,308.250 117.500 C 308.387 117.500,308.500 117.612,308.500 117.750 C 308.500 117.917,308.667 118.000,309.000 118.000 C 309.333 118.000,309.500 118.083,309.500 118.250 C 309.500 118.435,309.694 118.500,310.250 118.500 C 310.806 118.500,311.000 118.565,311.000 118.750 C 311.000 118.888,311.112 119.000,311.250 119.000 C 311.387 119.000,311.500 119.074,311.500 119.163 C 311.500 119.253,311.688 119.374,311.917 119.432 C 312.216 119.507,312.333 119.649,312.333 119.935 C 312.333 120.178,312.431 120.333,312.583 120.333 C 312.750 120.333,312.833 120.500,312.833 120.833 C 312.833 121.167,312.750 121.333,312.583 121.333 C 312.446 121.333,312.333 121.446,312.333 121.583 C 312.333 121.721,312.221 121.833,312.083 121.833 C 311.946 121.833,311.833 121.946,311.833 122.083 C 311.833 122.239,311.676 122.333,311.417 122.333 C 311.157 122.333,311.000 122.428,311.000 122.583 C 311.000 122.769,310.806 122.833,310.250 122.833 C 309.694 122.833,309.500 122.769,309.500 122.583 C 309.500 122.398,309.306 122.333,308.750 122.333 C 308.194 122.333,308.000 122.269,308.000 122.083 C 308.000 121.903,307.815 121.833,307.333 121.833 C 306.852 121.833,306.667 121.903,306.667 122.083 C 306.667 122.221,306.554 122.333,306.417 122.333 C 306.225 122.333,306.167 122.546,306.167 123.250 C 306.167 123.954,306.225 124.167,306.417 124.167 C 306.554 124.167,306.667 124.279,306.667 124.417 C 306.667 124.583,306.833 124.667,307.167 124.667 C 307.500 124.667,307.667 124.750,307.667 124.917 C 307.667 125.127,308.037 125.167,310.000 125.167 C 311.963 125.167,312.333 125.127,312.333 124.917 C 312.333 124.737,312.517 124.667,312.982 124.667 C 313.405 124.667,313.664 124.580,313.727 124.417 C 313.780 124.279,313.938 124.167,314.078 124.167 C 314.218 124.167,314.333 124.054,314.333 123.917 C 314.333 123.779,314.408 123.667,314.500 123.667 C 314.592 123.667,314.667 123.554,314.667 123.417 C 314.667 123.279,314.779 123.167,314.917 123.167 C 315.097 123.167,315.167 122.981,315.167 122.500 C 315.167 122.019,315.236 121.833,315.417 121.833 C 315.615 121.833,315.667 121.593,315.667 120.667 C 315.667 119.741,315.615 119.500,315.417 119.500 C 315.231 119.500,315.167 119.306,315.167 118.750 C 315.167 118.194,315.102 118.000,314.917 118.000 C 314.779 118.000,314.667 117.913,314.667 117.807 C 314.667 117.482,313.631 116.667,313.220 116.667 C 312.987 116.667,312.833 116.567,312.833 116.417 C 312.833 116.231,312.639 116.167,312.083 116.167 C 311.528 116.167,311.333 116.102,311.333 115.917 C 311.333 115.761,311.176 115.667,310.917 115.667 C 310.657 115.667,310.500 115.572,310.500 115.417 C 310.500 115.279,310.387 115.167,310.250 115.167 C 310.112 115.167,310.000 115.054,310.000 114.917 C 310.000 114.779,309.887 114.667,309.750 114.667 C 309.596 114.667,309.500 114.511,309.500 114.262 C 309.500 114.017,309.385 113.828,309.208 113.782 C 308.931 113.709,308.931 113.704,309.208 113.686 C 309.403 113.673,309.500 113.528,309.500 113.250 C 309.500 112.915,309.583 112.833,309.922 112.833 C 310.154 112.833,310.387 112.721,310.440 112.583 C 310.512 112.395,310.815 112.333,311.667 112.333 C 312.518 112.333,312.821 112.395,312.894 112.583 C 312.961 112.760,313.236 112.833,313.828 112.833 L 314.667 112.833 314.667 111.655 C 314.667 109.971,314.724 110.000,311.453 110.000 C 308.788 110.000,308.704 110.011,308.280 110.403 M323.373 117.542 L 323.417 125.083 324.750 125.083 L 326.083 125.083 326.127 117.542 L 326.170 110.000 324.750 110.000 L 323.330 110.000 323.373 117.542 M333.333 111.167 L 333.333 112.333 335.417 112.333 L 337.500 112.333 337.500 118.757 L 337.500 125.180 338.875 125.132 L 340.250 125.083 340.294 118.708 L 340.337 112.333 342.502 112.333 L 344.667 112.333 344.667 111.167 L 344.667 110.000 339.000 110.000 L 333.333 110.000 333.333 111.167 M350.833 110.667 C 350.833 111.148,350.903 111.333,351.083 111.333 C 351.250 111.333,351.333 111.500,351.333 111.833 C 351.333 112.167,351.417 112.333,351.583 112.333 C 351.740 112.333,351.833 112.491,351.833 112.755 C 351.833 112.987,351.946 113.220,352.083 113.273 C 352.221 113.326,352.333 113.548,352.333 113.768 C 352.333 113.987,352.408 114.167,352.500 114.167 C 352.592 114.167,352.667 114.311,352.667 114.488 C 352.667 114.665,352.779 114.922,352.917 115.060 C 353.054 115.197,353.167 115.390,353.167 115.488 C 353.167 115.586,353.279 115.667,353.417 115.667 C 353.573 115.667,353.667 115.825,353.667 116.089 C 353.667 116.321,353.779 116.554,353.917 116.606 C 354.054 116.659,354.167 116.882,354.167 117.101 C 354.167 117.345,354.264 117.500,354.417 117.500 C 354.583 117.500,354.667 117.667,354.667 118.000 C 354.667 118.333,354.750 118.500,354.917 118.500 C 355.131 118.500,355.167 118.982,355.167 121.840 L 355.167 125.180 356.542 125.132 L 357.917 125.083 357.962 121.838 C 357.999 119.182,358.052 118.567,358.254 118.455 C 358.389 118.379,358.500 118.133,358.500 117.908 C 358.500 117.684,358.575 117.500,358.667 117.500 C 358.758 117.500,358.833 117.388,358.833 117.250 C 358.833 117.112,358.946 117.000,359.083 117.000 C 359.236 117.000,359.333 116.845,359.333 116.601 C 359.333 116.382,359.446 116.159,359.583 116.106 C 359.721 116.054,359.833 115.821,359.833 115.589 C 359.833 115.325,359.927 115.167,360.083 115.167 C 360.250 115.167,360.333 115.000,360.333 114.667 C 360.333 114.333,360.417 114.167,360.583 114.167 C 360.721 114.167,360.833 114.062,360.833 113.934 C 360.833 113.807,360.946 113.659,361.083 113.606 C 361.221 113.554,361.333 113.366,361.333 113.190 C 361.333 113.013,361.446 112.826,361.583 112.773 C 361.721 112.720,361.833 112.487,361.833 112.255 C 361.833 112.023,361.908 111.833,362.000 111.833 C 362.092 111.833,362.167 111.608,362.167 111.333 C 362.167 111.000,362.250 110.833,362.417 110.833 C 362.572 110.833,362.667 110.676,362.667 110.417 L 362.667 110.000 361.000 110.000 L 359.333 110.000 359.333 110.417 C 359.333 110.646,359.264 110.833,359.180 110.833 C 359.096 110.833,358.977 111.058,358.917 111.333 C 358.856 111.608,358.738 111.833,358.653 111.833 C 358.569 111.833,358.500 112.058,358.500 112.333 C 358.500 112.667,358.417 112.833,358.250 112.833 C 358.097 112.833,358.000 112.989,358.000 113.232 C 358.000 113.452,357.887 113.674,357.750 113.727 C 357.613 113.780,357.500 114.013,357.500 114.245 C 357.500 114.509,357.406 114.667,357.250 114.667 C 357.083 114.667,357.000 114.833,357.000 115.167 C 357.000 115.500,356.917 115.667,356.750 115.667 C 356.613 115.667,356.500 115.554,356.500 115.417 C 356.500 115.279,356.387 115.167,356.250 115.167 C 356.083 115.167,356.000 115.000,356.000 114.667 C 356.000 114.333,355.917 114.167,355.750 114.167 C 355.594 114.167,355.500 114.009,355.500 113.750 C 355.500 113.521,355.425 113.333,355.333 113.333 C 355.242 113.333,355.167 113.108,355.167 112.833 C 355.167 112.500,355.083 112.333,354.917 112.333 C 354.750 112.333,354.667 112.167,354.667 111.833 C 354.667 111.500,354.583 111.333,354.417 111.333 C 354.268 111.333,354.167 111.180,354.167 110.954 C 354.167 110.255,353.632 110.000,352.165 110.000 L 350.833 110.000 350.833 110.667 M148.500 112.583 C 148.500 112.735,148.655 112.833,148.896 112.833 C 149.114 112.833,149.386 112.946,149.500 113.083 C 149.614 113.221,149.848 113.333,150.020 113.333 C 150.193 113.333,150.333 113.408,150.333 113.500 C 150.333 113.592,150.446 113.667,150.583 113.667 C 150.750 113.667,150.833 113.833,150.833 114.167 C 150.833 114.500,150.917 114.667,151.083 114.667 C 151.250 114.667,151.333 114.833,151.333 115.167 C 151.333 115.500,151.417 115.667,151.583 115.667 C 151.789 115.667,151.833 115.963,151.833 117.333 C 151.833 118.704,151.789 119.000,151.583 119.000 C 151.417 119.000,151.333 119.167,151.333 119.500 C 151.333 119.833,151.250 120.000,151.083 120.000 C 150.928 120.000,150.833 120.157,150.833 120.417 C 150.833 120.676,150.739 120.833,150.583 120.833 C 150.446 120.833,150.333 120.946,150.333 121.083 C 150.333 121.221,150.221 121.333,150.083 121.333 C 149.946 121.333,149.833 121.446,149.833 121.583 C 149.833 121.739,149.676 121.833,149.417 121.833 C 149.157 121.833,149.000 121.928,149.000 122.083 C 149.000 122.269,148.806 122.333,148.250 122.333 C 147.694 122.333,147.500 122.398,147.500 122.583 C 147.500 122.782,147.259 122.833,146.333 122.833 L 145.167 122.833 145.167 117.583 L 145.167 112.333 146.833 112.333 C 148.204 112.333,148.500 112.378,148.500 112.583 M294.833 112.583 C 294.833 112.721,294.914 112.833,295.012 112.833 C 295.243 112.833,295.667 113.257,295.667 113.488 C 295.667 113.586,295.779 113.667,295.917 113.667 C 296.081 113.667,296.167 113.831,296.167 114.149 C 296.167 114.424,296.059 114.672,295.917 114.727 C 295.779 114.780,295.667 115.013,295.667 115.245 C 295.667 115.477,295.592 115.667,295.500 115.667 C 295.408 115.667,295.333 115.779,295.333 115.917 C 295.333 116.083,295.167 116.167,294.833 116.167 C 294.500 116.167,294.333 116.250,294.333 116.417 C 294.333 116.615,294.093 116.667,293.167 116.667 L 292.000 116.667 292.000 114.500 L 292.000 112.333 293.417 112.333 C 294.565 112.333,294.833 112.381,294.833 112.583 M179.333 115.339 C 179.333 115.782,179.418 116.043,179.583 116.106 C 179.746 116.169,179.833 116.428,179.833 116.851 C 179.833 117.317,179.904 117.500,180.083 117.500 C 180.221 117.500,180.333 117.612,180.333 117.750 C 180.333 117.950,180.083 118.000,179.083 118.000 L 177.833 118.000 177.833 117.351 C 177.833 116.928,177.920 116.669,178.083 116.606 C 178.248 116.543,178.333 116.282,178.333 115.839 C 178.333 115.352,178.402 115.167,178.583 115.167 C 178.721 115.167,178.833 115.054,178.833 114.917 C 178.833 114.779,178.946 114.667,179.083 114.667 C 179.264 114.667,179.333 114.852,179.333 115.339 " stroke="none" fill="#241c24" fill-rule="evenodd"></path><path id="path2" d="M309.000 50.083 C 309.000 80.713,309.029 84.667,309.250 84.667 C 309.459 84.667,309.500 85.019,309.500 86.833 C 309.500 88.648,309.541 89.000,309.750 89.000 C 309.948 89.000,310.000 89.241,310.000 90.167 C 310.000 91.093,310.052 91.333,310.250 91.333 C 310.431 91.333,310.500 91.519,310.500 92.005 C 310.500 92.449,310.585 92.710,310.750 92.773 C 310.893 92.828,311.000 93.076,311.000 93.351 C 311.000 93.678,311.084 93.833,311.261 93.833 C 311.447 93.833,311.492 93.930,311.416 94.167 C 311.346 94.390,311.398 94.535,311.572 94.602 C 311.716 94.657,311.833 94.847,311.833 95.023 C 311.833 95.200,312.058 95.565,312.333 95.833 C 312.608 96.102,312.833 96.400,312.833 96.494 C 312.833 96.589,312.946 96.667,313.083 96.667 C 313.221 96.667,313.333 96.779,313.333 96.917 C 313.333 97.054,313.446 97.167,313.583 97.167 C 313.737 97.167,313.833 97.323,313.833 97.572 C 313.833 97.891,313.932 97.989,314.292 98.031 C 314.549 98.060,314.732 98.174,314.708 98.292 C 314.685 98.406,314.779 98.500,314.917 98.500 C 315.054 98.500,315.167 98.612,315.167 98.750 C 315.167 98.888,315.279 99.000,315.417 99.000 C 315.554 99.000,315.667 99.112,315.667 99.250 C 315.667 99.417,315.833 99.500,316.167 99.500 C 316.500 99.500,316.667 99.583,316.667 99.750 C 316.667 99.906,316.825 100.000,317.089 100.000 C 317.321 100.000,317.554 100.112,317.606 100.250 C 317.659 100.388,317.882 100.500,318.101 100.500 C 318.321 100.500,318.500 100.575,318.500 100.667 C 318.500 100.758,318.725 100.833,319.000 100.833 C 319.333 100.833,319.500 100.917,319.500 101.083 C 319.500 101.269,319.694 101.333,320.250 101.333 C 320.806 101.333,321.000 101.398,321.000 101.583 C 321.000 101.775,321.213 101.833,321.917 101.833 C 322.620 101.833,322.833 101.891,322.833 102.083 C 322.833 102.282,323.075 102.333,324.005 102.333 C 324.893 102.333,325.200 102.394,325.273 102.583 C 325.350 102.784,325.724 102.833,327.184 102.833 C 328.687 102.833,329.000 102.876,329.000 103.083 C 329.000 103.302,329.981 103.333,336.833 103.333 C 343.685 103.333,344.667 103.302,344.667 103.083 C 344.667 102.876,344.991 102.833,346.583 102.833 C 348.176 102.833,348.500 102.791,348.500 102.583 C 348.500 102.387,348.732 102.333,349.589 102.333 C 350.402 102.333,350.701 102.270,350.773 102.083 C 350.842 101.904,351.123 101.833,351.768 101.833 C 352.456 101.833,352.667 101.775,352.667 101.583 C 352.667 101.398,352.861 101.333,353.417 101.333 C 353.972 101.333,354.167 101.269,354.167 101.083 C 354.167 100.904,354.350 100.833,354.819 100.833 C 355.178 100.833,355.497 100.761,355.528 100.671 C 355.558 100.582,355.758 100.483,355.972 100.451 C 356.186 100.418,356.411 100.315,356.472 100.222 C 356.533 100.128,356.790 100.001,357.042 99.939 C 357.294 99.877,357.500 99.753,357.500 99.663 C 357.500 99.574,357.613 99.500,357.750 99.500 C 357.887 99.500,358.000 99.388,358.000 99.250 C 358.000 99.094,358.157 99.000,358.417 99.000 C 358.676 99.000,358.833 98.906,358.833 98.750 C 358.833 98.612,358.946 98.500,359.083 98.500 C 359.221 98.500,359.333 98.388,359.333 98.250 C 359.333 98.112,359.415 98.000,359.515 98.000 C 359.821 98.000,361.333 96.323,361.333 95.984 C 361.333 95.810,361.446 95.667,361.583 95.667 C 361.721 95.667,361.833 95.554,361.833 95.417 C 361.833 95.279,361.908 95.167,362.000 95.167 C 362.092 95.167,362.167 94.942,362.167 94.667 C 362.167 94.360,362.246 94.183,362.371 94.208 C 362.483 94.231,362.603 94.063,362.637 93.833 C 362.671 93.604,362.804 93.357,362.933 93.283 C 363.072 93.204,363.167 92.882,363.167 92.492 C 363.167 92.018,363.237 91.833,363.417 91.833 C 363.609 91.833,363.667 91.620,363.667 90.917 C 363.667 90.213,363.725 90.000,363.917 90.000 C 364.115 90.000,364.167 89.762,364.167 88.854 C 364.167 88.038,364.239 87.648,364.417 87.500 C 364.637 87.317,364.667 83.101,364.667 51.396 L 364.667 15.500 353.750 15.500 L 342.833 15.500 342.833 47.500 C 342.833 75.833,342.805 79.500,342.583 79.500 C 342.376 79.500,342.333 79.824,342.333 81.417 C 342.333 83.051,342.295 83.333,342.071 83.333 C 341.865 83.333,341.819 83.486,341.858 84.029 C 341.892 84.501,341.836 84.749,341.683 84.800 C 341.560 84.841,341.168 85.166,340.813 85.521 C 340.457 85.876,340.017 86.167,339.833 86.167 C 339.648 86.167,339.500 86.278,339.500 86.417 C 339.500 86.627,339.120 86.667,337.083 86.667 C 335.046 86.667,334.667 86.627,334.667 86.417 C 334.667 86.252,334.502 86.167,334.184 86.167 C 333.910 86.167,333.661 86.059,333.606 85.917 C 333.554 85.779,333.396 85.667,333.255 85.667 C 332.892 85.667,332.333 85.061,332.333 84.667 C 332.333 84.481,332.222 84.333,332.083 84.333 C 331.888 84.333,331.833 84.109,331.833 83.316 C 331.833 82.479,331.789 82.315,331.583 82.394 C 331.362 82.479,331.333 78.699,331.333 48.995 L 331.333 15.500 320.167 15.500 L 309.000 15.500 309.000 50.083 M53.000 45.583 C 53.000 45.775,52.787 45.833,52.083 45.833 C 51.380 45.833,51.167 45.891,51.167 46.083 C 51.167 46.250,51.000 46.333,50.667 46.333 C 50.333 46.333,50.167 46.417,50.167 46.583 C 50.167 46.750,50.000 46.833,49.667 46.833 C 49.333 46.833,49.167 46.917,49.167 47.083 C 49.167 47.221,49.062 47.333,48.934 47.333 C 48.807 47.333,48.660 47.445,48.607 47.581 C 48.554 47.720,48.402 47.785,48.258 47.730 C 48.109 47.673,47.960 47.743,47.900 47.899 C 47.844 48.046,47.693 48.167,47.566 48.167 C 47.438 48.167,47.333 48.279,47.333 48.417 C 47.333 48.554,47.221 48.667,47.083 48.667 C 46.946 48.667,46.833 48.779,46.833 48.917 C 46.833 49.054,46.721 49.167,46.583 49.167 C 46.446 49.167,46.333 49.279,46.333 49.417 C 46.333 49.554,46.237 49.667,46.119 49.667 C 46.001 49.667,45.893 49.817,45.879 50.000 C 45.865 50.183,45.614 50.552,45.321 50.820 C 44.972 51.139,44.823 51.400,44.891 51.577 C 44.952 51.737,44.894 51.884,44.747 51.941 C 44.608 51.994,44.500 52.245,44.500 52.518 C 44.500 52.835,44.415 53.000,44.250 53.000 C 44.071 53.000,44.000 53.183,44.000 53.649 C 44.000 54.072,43.913 54.331,43.750 54.394 C 43.540 54.474,43.500 55.005,43.500 57.745 C 43.500 60.527,43.536 61.000,43.750 61.000 C 43.942 61.000,44.000 61.213,44.000 61.917 C 44.000 62.620,44.058 62.833,44.250 62.833 C 44.415 62.833,44.500 62.998,44.500 63.316 C 44.500 63.588,44.608 63.839,44.747 63.893 C 44.883 63.945,44.954 64.093,44.904 64.222 C 44.855 64.351,44.931 64.574,45.074 64.717 C 45.217 64.859,45.333 65.057,45.333 65.155 C 45.333 65.253,45.446 65.333,45.583 65.333 C 45.721 65.333,45.833 65.446,45.833 65.583 C 45.833 65.721,45.946 65.833,46.083 65.833 C 46.239 65.833,46.333 65.991,46.333 66.250 C 46.333 66.479,46.408 66.667,46.500 66.667 C 46.592 66.667,46.817 66.817,47.000 67.000 C 47.183 67.183,47.333 67.408,47.333 67.500 C 47.333 67.592,47.521 67.667,47.750 67.667 C 48.009 67.667,48.167 67.761,48.167 67.917 C 48.167 68.054,48.271 68.167,48.399 68.167 C 48.527 68.167,48.674 68.279,48.727 68.417 C 48.780 68.554,49.013 68.667,49.245 68.667 C 49.509 68.667,49.667 68.760,49.667 68.917 C 49.667 69.054,49.779 69.167,49.917 69.167 C 50.054 69.167,50.167 69.242,50.167 69.333 C 50.167 69.425,50.467 69.500,50.833 69.500 C 51.315 69.500,51.500 69.569,51.500 69.750 C 51.500 69.935,51.694 70.000,52.250 70.000 C 52.806 70.000,53.000 70.065,53.000 70.250 C 53.000 70.463,53.454 70.500,56.083 70.500 C 58.713 70.500,59.167 70.463,59.167 70.250 C 59.167 70.058,59.380 70.000,60.083 70.000 C 60.787 70.000,61.000 69.942,61.000 69.750 C 61.000 69.583,61.167 69.500,61.500 69.500 C 61.775 69.500,62.000 69.425,62.000 69.333 C 62.000 69.242,62.190 69.167,62.422 69.167 C 62.654 69.167,62.887 69.054,62.940 68.917 C 62.992 68.779,63.215 68.667,63.434 68.667 C 63.678 68.667,63.833 68.569,63.833 68.417 C 63.833 68.279,63.946 68.167,64.083 68.167 C 64.221 68.167,64.333 68.054,64.333 67.917 C 64.333 67.779,64.446 67.667,64.583 67.667 C 64.721 67.667,64.833 67.554,64.833 67.417 C 64.833 67.279,64.946 67.167,65.083 67.167 C 65.221 67.167,65.333 67.054,65.333 66.917 C 65.333 66.779,65.446 66.667,65.583 66.667 C 65.721 66.667,65.833 66.554,65.833 66.417 C 65.833 66.279,65.914 66.167,66.012 66.167 C 66.243 66.167,66.667 65.743,66.667 65.512 C 66.667 65.414,66.779 65.333,66.917 65.333 C 67.083 65.333,67.167 65.167,67.167 64.833 C 67.167 64.500,67.250 64.333,67.417 64.333 C 67.554 64.333,67.667 64.221,67.667 64.083 C 67.667 63.946,67.779 63.833,67.917 63.833 C 68.097 63.833,68.167 63.648,68.167 63.167 C 68.167 62.685,68.236 62.500,68.417 62.500 C 68.601 62.500,68.667 62.308,68.667 61.768 C 68.667 61.271,68.747 61.005,68.917 60.940 C 69.290 60.797,69.290 55.037,68.917 54.894 C 68.737 54.825,68.667 54.544,68.667 53.899 C 68.667 53.211,68.608 53.000,68.417 53.000 C 68.250 53.000,68.167 52.833,68.167 52.500 C 68.167 52.177,68.082 52.000,67.928 52.000 C 67.791 52.000,67.666 51.804,67.636 51.542 C 67.606 51.284,67.492 51.102,67.375 51.125 C 67.260 51.148,67.167 51.052,67.167 50.911 C 67.167 50.771,67.054 50.613,66.917 50.560 C 66.779 50.508,66.667 50.330,66.667 50.166 C 66.667 49.755,65.079 48.167,64.667 48.167 C 64.476 48.167,64.333 48.056,64.333 47.907 C 64.333 47.764,64.258 47.694,64.165 47.751 C 64.073 47.808,63.953 47.737,63.898 47.594 C 63.843 47.451,63.693 47.333,63.566 47.333 C 63.438 47.333,63.333 47.221,63.333 47.083 C 63.333 46.928,63.176 46.833,62.917 46.833 C 62.657 46.833,62.500 46.739,62.500 46.583 C 62.500 46.417,62.333 46.333,62.000 46.333 C 61.667 46.333,61.500 46.250,61.500 46.083 C 61.500 45.892,61.289 45.833,60.601 45.833 C 59.956 45.833,59.675 45.763,59.606 45.583 C 59.526 45.373,58.995 45.333,56.255 45.333 C 53.473 45.333,53.000 45.370,53.000 45.583 " stroke="none" fill="#ec1c2c" fill-rule="evenodd"></path><path id="path3" d="" stroke="none" fill="#ec1c34" fill-rule="evenodd"></path><path id="path4" d="" stroke="none" fill="#0c54a4" fill-rule="evenodd"></path></g></svg>